<?xml version="1.0" encoding="utf-8"?>
<!-- Generator: Adobe Illustrator 16.0.0, SVG Export Plug-In . SVG Version: 6.00 Build 0)  -->
<!DOCTYPE svg PUBLIC "-//W3C//DTD SVG 1.1//EN" "http://www.w3.org/Graphics/SVG/1.1/DTD/svg11.dtd">
<svg version="1.1" id="Layer_1" xmlns="http://www.w3.org/2000/svg" xmlns:xlink="http://www.w3.org/1999/xlink" x="0px" y="0px"
	 width="512px" height="512px" viewBox="0 0 512 512" enable-background="new 0 0 512 512" xml:space="preserve">
<path fill="#4C85C5" d="M120.817,230.914c-3.146,0-7.867,0-11.014-1.576l-73.945-31.466c-14.161-6.292-20.453-22.026-15.734-36.185
	c6.294-14.158,22.025-20.452,36.187-15.733l73.945,31.465c14.159,6.294,20.453,22.026,15.732,36.188
	C141.27,224.619,131.83,230.914,120.817,230.914z M333.209,507.813c-11.01,0-22.021-6.291-25.167-17.303l-39.333-99.124
	c-6.292-14.155,1.573-29.89,15.729-36.182c14.167-6.297,29.895,1.572,36.188,15.733l39.333,99.115
	c6.292,14.161-1.573,29.896-15.73,36.187C339.512,507.813,336.365,507.813,333.209,507.813z"/>
<path fill="#123D65" d="M367.822,234.06c-11.01,0-22.021-6.294-25.166-17.308c-6.291-14.159,1.572-29.893,15.729-36.184
	l99.124-39.333c14.157-6.294,29.887,1.572,36.178,15.731c6.302,14.161-1.573,29.893-15.729,36.188l-99.114,39.333
	C375.698,234.06,372.542,234.06,367.822,234.06z"/>
<path fill="#EB5256" d="M438.625,367.793c-3.146,0-7.864,0-11.011-3.15l-70.802-31.464c-14.156-6.292-20.447-22.031-14.156-36.188
	c6.292-14.155,22.021-20.453,36.188-14.155l70.791,31.463c14.166,6.292,20.459,22.026,14.166,36.182
	C459.083,363.069,449.635,367.793,438.625,367.793z M149.137,504.667c-3.149,0-7.867,0-11.014-1.573
	c-14.161-6.29-20.453-22.025-14.161-36.187l42.479-97.541c6.294-14.161,22.026-20.458,36.187-14.161
	c14.159,6.292,20.454,22.026,14.159,36.182l-42.479,97.551C169.589,498.376,158.577,504.667,149.137,504.667z"/>
<path fill="#4C85C5" d="M297.032,160.115c-3.146,0-6.303,0-11.021-1.573c-14.156-6.294-20.448-22.028-15.729-36.188l17.302-44.051
	c6.302-14.162,22.031-20.453,36.188-15.735c14.167,6.294,20.457,22.026,15.74,36.188l-17.312,44.051
	C319.053,153.821,308.042,160.115,297.032,160.115z"/>
<path fill="#EB5256" d="M193.188,158.542c-11.012,0-22.026-6.294-25.174-17.307l-39.332-99.12
	c-6.294-14.158,1.573-29.893,15.732-36.185c14.161-6.294,29.893,1.572,36.188,15.731l39.333,99.12
	c6.292,14.159-1.576,29.893-15.735,36.185C201.056,158.542,197.907,158.542,193.188,158.542z"/>
<path fill="#123D65" d="M53.164,359.924c-11.014,0-22.026-6.297-25.171-17.307c-6.295-14.157,1.572-29.892,15.731-36.188
	l66.08-26.745c14.159-6.292,29.894,1.573,36.185,15.734c6.294,14.155-1.573,29.896-15.732,36.187l-66.08,26.745
	C59.458,359.924,56.312,359.924,53.164,359.924z"/>
</svg>
