<?xml version="1.0" encoding="utf-8"?>
<!-- Generator: Adobe Illustrator 16.0.0, SVG Export Plug-In . SVG Version: 6.00 Build 0)  -->
<!DOCTYPE svg PUBLIC "-//W3C//DTD SVG 1.1//EN" "http://www.w3.org/Graphics/SVG/1.1/DTD/svg11.dtd">
<svg version="1.1"
	 id="svg2" xmlns:dc="http://purl.org/dc/elements/1.1/" xmlns:cc="http://creativecommons.org/ns#" xmlns:rdf="http://www.w3.org/1999/02/22-rdf-syntax-ns#" xmlns:svg="http://www.w3.org/2000/svg" xmlns:sodipodi="http://sodipodi.sourceforge.net/DTD/sodipodi-0.dtd" xmlns:inkscape="http://www.inkscape.org/namespaces/inkscape" sodipodi:docname="Nouveau document 1" inkscape:version="0.48.4 r9939"
	 xmlns="http://www.w3.org/2000/svg" xmlns:xlink="http://www.w3.org/1999/xlink" x="0px" y="0px" width="2193px"
	 height="727.037px" viewBox="0 0 2193 727.037" enable-background="new 0 0 2193 727.037" xml:space="preserve">
<sodipodi:namedview  fit-margin-left="0" fit-margin-top="0" showguides="true" showgrid="false" inkscape:cy="221.32007" inkscape:cx="1026.6585" inkscape:zoom="0.28389963" borderopacity="1.0" bordercolor="#666666" pagecolor="#ffffff" id="base" inkscape:window-maximized="1" inkscape:window-y="0" inkscape:window-x="0" inkscape:window-height="716" inkscape:window-width="1366" fit-margin-bottom="0" fit-margin-right="0" inkscape:current-layer="g3054" inkscape:document-units="px" inkscape:pageopacity="0.0" inkscape:guide-bbox="true" inkscape:pageshadow="2">
	</sodipodi:namedview>
<g id="layer1" transform="translate(582.23375,-1935.7817)" inkscape:label="Calque 1" inkscape:groupmode="layer">
	<g id="g3054" transform="translate(-426.20696,1384.292)">
		<path id="path3073" inkscape:connector-curvature="0" fill="#FFFFFF" d="M-126.727,577.173l181.821,7.472l112.082,102.118
			l562.896,2.491l-2.491-114.572l378.586,2.491l-2.491,107.1l117.062,4.981l2.491,84.684l99.627-84.684l236.616-2.491V582.154
			l201.746-4.981l2.49,107.1l141.97,2.49l109.591,99.628l2.49,353.678L-29.59,1145.05l-107.1-112.081L-126.727,577.173z"/>
		<path id="path3071" inkscape:connector-curvature="0" fill="#6441A5" d="M50.973,1222.428l-93.5-56.062l-56.75-56.686
			l-56.75-56.685V802.243V551.49h119.238H82.45l56.532,56.5l56.532,56.5h255.694c251.774,0,255.71-0.03,256.729-1.934
			c0.678-1.266,1.035-20.799,1.035-56.5V551.49h212.992h212.991l0.259,56.25l0.258,56.25l56,0.5l56,0.5l0.265,29.75
			c0.146,16.362,0.587,29.75,0.979,29.75c0.393,0,14.241-13.5,30.773-30l30.06-30h62.941h62.941l56.532-56.5l56.532-56.5h118.738
			h118.738v54.566c0,35.701,0.358,55.234,1.035,56.5c1.008,1.883,2.832,1.934,69.254,1.934h68.218l56.247,56.253l56.246,56.253
			v188.055v188.055l-93.75,62.711l-93.75,62.71l-62.707-0.019l-62.709-0.02l-0.291-29.918c-0.161-16.455-0.612-30.237-1.003-30.627
			s-20.017,13.073-43.611,29.918l-42.901,30.627h-56.639h-56.639v-30c0-23.412-0.275-30-1.256-30c-0.691,0-14.751,13.5-31.244,30
			l-29.987,30h-100.513h-100.512l-30.467-30.478c-16.756-16.764-30.815-30.128-31.243-29.7s-3.245,13.13-6.261,28.228
			s-5.725,28.463-6.02,29.7l-0.536,2.25h-87.737h-87.737l-29.987-30c-16.493-16.5-30.553-30-31.244-30c-0.98,0-1.256,6.588-1.256,30
			v30h-88c-48.4,0-88-0.134-88-0.297c0-1.574-12.119-60.155-12.529-60.565c-0.302-0.302-14.371,13.27-31.266,30.157l-30.717,30.705
			H533.224H369.988l-30.015-12c-16.508-6.6-30.461-12-31.007-12c-0.603,0-0.993,4.725-0.993,12v12h-81.75h-81.75L50.973,1222.428
			L50.973,1222.428z M144.473,1046.49v-68.5l-56-0.5l-56-0.5v-62v-62l56-0.5l56-0.5v-68.5v-68.5l-56-0.5l-56-0.5l-0.5-56l-0.5-56
			h-68.5h-68.5l-0.252,212.971l-0.252,212.971l43.743,43.784l43.743,43.785l81.509-0.256l81.51-0.256V1046.49L144.473,1046.49z
			 M665.242,1071.71l43.737-43.779l-0.253-156.471l-0.253-156.471l-68.746-0.257l-68.746-0.257l-0.254,131.257l-0.254,131.257h-24.5
			h-24.5l-0.5-131l-0.5-131l-68.746-0.257l-68.746-0.257l-0.254,131.257l-0.254,131.257h-24.5h-24.5l-0.5-131l-0.5-131l-68.75-0.257
			l-68.75-0.257v200.507v200.507h213.266h213.265L665.242,1071.71L665.242,1071.71z M896.473,914.99v-200l-68.75-0.257l-68.75-0.257
			V914.99v200.514l68.75-0.257l68.75-0.257V914.99L896.473,914.99z M1196.973,1046.499v-68.992l-55.75-0.258l-55.75-0.259v-62v-62
			l55.75-0.258l55.75-0.258V783.49v-68.983l-55.75-0.258l-55.75-0.258l-0.5-56l-0.5-56h-68.5h-68.5l-0.252,212.994l-0.253,212.994
			l43.748,43.756l43.748,43.757h81.255h81.254V1046.499z M1547.973,1046.488v-69h-80.893c-72.842,0-80.953-0.157-81.5-1.581
			c-0.793-2.067-0.793-119.77,0-121.837c0.547-1.424,8.658-1.582,81.5-1.582h80.893v-69v-69h-106.736h-106.738l-43.262,43.263
			l-43.264,43.263v113.974v113.974l43.264,43.263l43.262,43.263h106.738h106.736V1046.488L1547.973,1046.488z M1736.219,984.238
			l0.254-131.25h56h56l0.5,131l0.5,131h68.5h68.5l0.253-156.47l0.253-156.471l-43.737-43.779l-43.737-43.78h-80.644
			c-66.245,0-80.842-0.24-81.757-1.342c-0.781-0.941-1.19-17.725-1.372-56.25l-0.259-54.908h-68.5h-68.5l-0.256,255.5
			c-0.141,140.525-0.043,256.062,0.219,256.75c0.373,0.983,15.1,1.25,69.002,1.25h68.527L1736.219,984.238L1736.219,984.238z
			 M896.473,632.988v-31h-68.5h-68.5l-0.266,29.989c-0.146,16.494-0.046,30.56,0.222,31.257c0.388,1.01,14.363,1.216,68.766,1.011
			l68.278-0.257V632.988L896.473,632.988z"/>
	</g>
	<g id="g3048" transform="translate(-747.20785,1205.4953)">
	</g>
	<g id="g3040" transform="translate(-9.9627713,951.44466)">
	</g>
</g>
</svg>
