<?xml version="1.0" ?><!DOCTYPE svg  PUBLIC '-//W3C//DTD SVG 1.1//EN'  'http://www.w3.org/Graphics/SVG/1.1/DTD/svg11.dtd'><svg enable-background="new 0 0 512 512" height="512px" id="Layer_1" version="1.1" viewBox="0 0 512 512" width="512px" xml:space="preserve" xmlns="http://www.w3.org/2000/svg" xmlns:xlink="http://www.w3.org/1999/xlink"><path d="M512,80v352c0,44.18-35.82,80-80,80H80c-44.18,0-80-35.82-80-80V80C0,35.82,35.82,0,80,0h352  C476.18,0,512,35.82,512,80z" fill="#6441A5"/><path d="M512,432V222.52h-0.332v-0.851h-0.851v-0.851h-0.851v-0.852h-0.85v-0.85h-0.851v-0.851h-0.851v-0.851h-0.852  v-0.851h-0.85v-0.851h-0.851v-0.85h-0.851v-0.852h-0.851v-0.851h-0.851v-0.851h-0.85v-0.85h-0.852v-0.851h-0.851v-0.851h-0.85  v-0.851h-0.851v-0.851h-0.851v-0.851h-0.851v-0.851h-0.851v-0.851h-0.851v-0.851h-0.85v-0.85h-0.852v-0.852h-0.85v-0.85h-0.851  v-0.851h-0.851v-0.851h-0.852v-0.852h-0.85v-0.85h-0.851v-0.851h-0.851v-0.851h-0.851v-0.851h-0.851v-0.851h-0.851v-0.851h-0.851  v-0.851h-0.851v-0.851H481.9V191.9h-0.85v-0.85h-0.852v-0.852h-0.851v-0.851h-0.851v-0.851h-0.85v-0.85h-0.851v-0.851h-0.851v-0.851  h-0.851v-0.851h-0.851v-0.851h-0.851v-0.851h-0.851v-0.851h-0.85v-0.851h-0.851v-0.851h-0.851v-0.851h-0.852v-0.851h-0.85v-0.85  h-0.851v-0.851h-0.851v-0.851h-0.851v-0.852h-0.851v-0.85h-0.851v-0.851h-0.851v-0.851h-0.851v-0.851h-0.851v-0.851h-0.85v-0.85  h-0.851v-0.852h-0.851v-0.85h-0.852v-0.852h-0.85v-0.85h-0.851v-0.851h-0.851v-0.851h-0.851v-0.851h-0.851v-0.851h-0.851v-0.851  h-0.851v-0.851h-0.851v-0.851h-0.851v-0.851h-0.85v-0.85h-0.851v-0.852h-0.851v-0.85h-0.851v-0.851h-0.851v-0.851h-0.851v-0.851  h-0.851v-0.851h-0.851v-0.851h-0.851v-0.851h-0.851v-0.851h-0.851v-0.851h-0.85v-0.85h-0.851v-0.852h-0.851v-0.85h-0.851v-0.852  h-0.851v-0.85h-0.851v-0.851h-0.851v-0.851h-0.851v-0.851h-0.85v-0.851h-0.851v-0.85h-0.852v-0.852h-0.851v-0.85h-0.851v-0.852  h-0.85v-0.85h-0.851v-0.851h-0.851v-0.851h-0.851v-0.851h-0.851v-0.851h-0.851v-0.851h-0.851v-0.851h-0.851v-0.851h-0.85v-0.851  h-0.851v-0.85h-0.851v-0.852h-0.851v-0.85h-0.851v-0.851h-0.851v-0.851h-0.851v-0.851h-0.851v-0.851h-0.851v-0.851h-0.851v-0.851  h-0.851v-0.851h-0.85v-0.851h-0.851v-0.85h-0.851v-0.852h-0.851v-0.85h-0.851v-0.852h-0.851v-0.85h-0.851v-0.851h-0.851v-0.851  h-0.85v-0.85h-0.852v-0.852h-0.851v-0.851h-0.851v-0.851h-0.851v-0.851h-0.85v-0.851h-0.851v-0.85h-0.852v-0.852h-0.849v-0.85  h-0.852v-0.851h-0.851v-0.851h-0.851v-0.851H396V106H136l-20,51.318V366h0.851v0.851h0.851v0.851h0.851v0.851h0.851v0.851h0.85  v0.851h0.851v0.851h0.851v0.851h0.85v0.85h0.851v0.851h0.851v0.851h0.851v0.851h0.851v0.851h0.85v0.851h0.851v0.851h0.851v0.851  h0.851v0.851h0.851v0.851h0.851v0.851h0.851v0.851h0.851v0.851h0.85v0.85h0.85v0.851h0.851v0.851h0.851v0.851h0.851v0.851h0.851  v0.851h0.851v0.851h0.851v0.851h0.85v0.851h0.851v0.851h0.851v0.851h0.85v0.85h0.851v0.851h0.851v0.851h0.851v0.851h0.851v0.851  h0.85v0.851h0.851v0.851h0.851v0.851h0.85v0.85h0.851v0.851h0.851v0.851h0.851v0.852h0.851v0.851h0.85v0.85h0.851v0.851h0.85v0.851  h0.85v0.851h0.851v0.851h0.851v0.851h0.851v0.851h0.851v0.851h0.85v0.85h0.851v0.852h0.851v0.851h0.85v0.85h0.851v0.851h0.851v0.851  h0.851v0.851h0.851v0.851h0.851v0.851h0.851v0.85h0.851v0.852h0.85v0.85h0.851v0.851h0.851v0.851h0.851v0.851h0.851v0.851h0.85  v0.851h0.851v0.851h0.851v0.851h0.85v0.851h0.851v0.851h0.851v0.851h0.851v0.851h0.851v0.851h0.85v0.85h0.851v0.851h0.851v0.851  h0.851v0.852h0.851v0.85h0.851v0.851h0.851v0.851h0.851v0.851h0.851v0.851h0.85v0.851h0.851v0.851h0.851v0.85h0.85v0.851h0.85v0.851  h0.851v0.851h0.851v0.851h0.85v0.851h0.851v0.851h0.851v0.851h0.851v0.851h0.851v0.851h0.85v0.85h0.851v0.851h0.85v0.852h0.85v0.85  h0.851v0.851h0.851v0.851h0.851v0.852h0.851v0.85h0.85v0.851h0.851v0.851h0.851v0.851h0.85v0.851h0.85v0.85h0.851v0.852h0.851v0.851  h0.85v0.85h0.851v0.851h0.851v0.851h0.851v0.851h0.851v0.851h0.851v0.851h0.851v0.851h0.851v0.851h0.851v0.85h0.85v0.851h0.851  v0.851h0.851v0.852h0.85v0.85h0.85v0.851h0.851v0.851h0.851v0.851h0.851v0.851h0.85v0.851h0.851v0.851h0.851v0.851h0.85v0.851h0.85  v0.85h0.851v0.852h0.851v0.851h0.85v0.851h0.851v0.85h0.851v0.851h0.851v0.851h0.851v0.851h0.85v0.851h0.851v0.85h0.851v0.852h0.851  v0.85h0.85v0.851h0.851v0.851h0.851v0.852h0.85v0.85h0.851v0.851h0.851v0.851h0.851v0.851h0.851v0.851h0.851v0.851h0.851v0.851  h0.851v0.85h0.851v0.852h0.85v0.85h0.851v0.851h0.851v0.851h0.851v0.851h0.851v0.851h0.851v0.851h0.851v0.851h0.85v0.851h0.851  v0.851h0.85v0.851h0.852v0.851h0.85v0.85h0.852v0.851h0.85v0.851h0.851V512H432C476.18,512,512,476.18,512,432z" fill="#3D2577"/><g id="_x7C___x7C__2_"><path d="M316,366h-60l-30,40h-40v-40h-70V157.318L136,106h260v180L316,366z M366,276V136H156v190h60   v40l40-40h60L366,276z" fill="#FFFFFF" id="Dialog_2_"/><rect fill="#FFFFFF" height="80" id="_x7C__5_" width="30" x="286" y="186"/><rect fill="#FFFFFF" height="80" id="_x7C__4_" width="30" x="226" y="186"/></g></svg>