<?xml version="1.0" encoding="utf-8"?>
<!-- Generator: Adobe Illustrator 19.0.0, SVG Export Plug-In . SVG Version: 6.00 Build 0)  -->
<svg version="1.1" id="Layer_1" xmlns="http://www.w3.org/2000/svg" xmlns:xlink="http://www.w3.org/1999/xlink" x="0px" y="0px"
	 viewBox="0 0 612 792" style="enable-background:new 0 0 612 792;" xml:space="preserve">
<style type="text/css">
	.st0{fill:#FFFFFF;}
</style>
<path id="XMLID_109_" class="st0" d="M489.5,523.4c-3.7,32-33.8,54.2-67.7,54.2c-63,0-126.1,0-189.1,0c-17.6,0-34.8,0.5-52.4-0.5
	c-31.5-2.3-58.9-29.7-59.8-61.2c-0.9-21.8-0.9-44,0-65.8c1.4-33.8,31.1-61.6,64.9-62.1c40.3-0.5,80.6,0,121,0l0,0
	c38.9,0,77.9,0,116.8,0c35.2,0,64,22.7,67.7,57.5C493.3,471,492.8,497.4,489.5,523.4z M236.9,411.7c-21.8,0-43.1,0-64.4,0
	c0,6,0,12,0,18.5c7,0,13.9,0,21.8,0c0,36.6,0,72.3,0,108.5c7,0,13.9,0,20.9,0c0-1.9,0-3.7,0-5.1c0-28.7,0-57.9,0-86.7
	c0-5.6,0.5-10.7,0.5-16.2c5.1,0,10.7-0.5,15.8-0.5c1.9,0,3.7,0,5.1,0C236.9,423.3,236.9,417.7,236.9,411.7z M299.1,445
	c-6,0-12.1,0-18.5,0c0,1.9,0,3.2,0,4.6c0,20.4,0,40.8,0,61.2c0,5.1-1.9,8.3-5.6,10.2c-2.3,0.9-5.6,2.3-7.9,1.4
	c-1.4-0.5-2.3-4.6-2.3-7c0-21.8,0-44,0-65.8c0-1.4,0-2.8,0-4.6c-6.5,0-12.5,0-18.5,0c0,0.9,0,1.9,0,2.8c0,25,0,50.1,0,75.5
	c0,2.3,0.5,4.6,0.9,6.5c1.4,7,6,11.1,13,10.2c5.1-0.9,9.7-3.2,14.4-5.6c2.3-0.9,4.2-3.2,7-5.6c0,3.7,0,6.5,0,9.7
	c6.5,0,12.5,0,18.1,0C299.1,507.1,299.1,476.1,299.1,445z M367.6,484.9c0-8.3,0-16.7-0.9-24.6c-1.9-15.3-16.7-21.3-29.2-12.5
	c-1.4,0.9-2.8,2.3-5.1,4.2c0-13.9,0-27.3,0-40.8c-5.6,0-10.7,0-16.2,0c-0.9,0-1.9,0-2.8,0c0,42.6,0,84.8,0,127c6.5,0,12.5,0,18.5,0
	c0-1.9,0.5-3.7,0.5-6c1.4,0.9,1.9,1.9,2.8,2.8c6.5,5.1,13.9,6.5,21.8,3.7c7.4-2.8,9.3-9.3,10.2-16.7c0-1.4,0-3.2,0-4.6
	C367.6,506.7,367.6,495.6,367.6,484.9z M413.5,513.2c0,1.9,0,3.7-0.5,5.6c-0.9,4.6-3.2,6.5-7.9,6.5c-4.2,0-7.4-1.9-7.4-6.5
	c-0.5-7.9,0-16.2,0-24.6c11.6,0,23.2,0,34.8,0c0-10.7,0.5-20.9,0-31.1c-0.5-7-3.7-12.5-9.7-16.2c-10.2-6-20.9-6-31.1-1.4
	c-9.7,4.6-14.4,13-14.4,23.6c0,14.8,0,29.2,0,44c0,9.3,2.8,17.6,10.7,23.2c8.8,6,24.6,6,33.8,0c8.3-5.1,12.5-17.6,9.7-29.2
	c-6,0-12.1,0-18.5,0C413.5,509.9,413.5,511.3,413.5,513.2z M397.3,465.4c0.5-4.6,3.2-6.5,7.4-7c4.6,0,7.9,1.9,8.3,6.5
	c0.5,4.2,0,8.8,0,13.4c-5.1,0-10.7,0-15.8,0C397.3,474.2,396.8,470.1,397.3,465.4z M344,524.8c-4.2,0.9-7.4-0.5-10.2-3.2
	c-0.9-0.9-0.9-2.3-0.9-3.7c0-8.8,0-17.6,0-26.4c0-8.3,0-17.1,0-25.5c0-4.2,1.9-6.5,6.5-7c4.6-0.5,7.9,1.4,8.8,5.1
	c0.5,1.9,0.5,3.7,0.5,6c0,15.3,0,30.1,0,45.4c0,0.9,0,1.4,0,2.3C348.2,520.6,347.7,523.8,344,524.8z M389.9,344
	c-3.2,2.8-6,5.1-8.8,7c-5.1,3.7-11.1,6-17.6,5.6c-7-0.9-11.1-4.6-12.1-11.6c-0.5-2.3-0.5-4.6-0.5-7c0-27.3,0-55.2,0-82.5
	c0-0.9,0-1.9,0.5-3.2c7,0,13.4,0,20.9,0c0,1.9,0,3.2,0,5.1c0,23.6,0,47.3,0,70.9c0,1.4,0,2.8,0,4.2c0.5,5.6,3.7,7.4,8.3,5.6
	c7-2.8,9.3-6,9.3-13.4c0-22.2,0-44.5,0-67.2c0-1.4,0-3.2,0-5.1c7,0,13.9,0,20.9,0c0,34.3,0,68.6,0,102.9c-7,0-13.4,0-20.9,0
	C389.9,351.4,389.9,348.2,389.9,344z M307.9,357c-5.6,0.5-11.1,0-16.7-1.4c-11.6-2.8-19-12.5-19-24.6c-0.5-9.7,0-19.5,0-28.7l0,0
	c0-8.8,0-17.1,0-26c0-14.4,7-23.2,20.9-26.4c7.9-1.9,15.3-1.9,23.2,0.9c10.7,4.2,17.1,13,17.6,24.6c0,17.6,0,34.8,0,52.4
	C333.4,344.9,325,355.1,307.9,357z M312,275.4c0-6-3.2-8.8-9.3-8.8c-6,0-8.8,2.8-8.8,8.8c0,18.1,0,36.2,0,54.2
	c0,6.5,2.8,9.7,8.8,9.7c6,0,8.8-3.2,9.3-9.7c0-9.3,0-18.1,0-27.3C312,293.5,312,284.7,312,275.4z M243.9,292.6
	c-0.9,2.3-1.4,5.1-1.4,7.9c0,16.7,0,32.9,0,49.6c0,1.4,0,2.8,0,4.6c-8.3,0-15.8,0-24.1,0c0-1.4,0-3.2,0-4.6c0-15.8,0-31.1,0-46.8
	c0-2.8-0.5-5.6-1.4-8.3c-8.3-25.5-16.7-50.5-25.5-75.5c-0.5-1.4-0.9-2.8-1.4-4.6c6,0,12.1,0.5,17.6,0c4.6-0.5,6.5,1.4,7.9,6
	c3.7,15.8,8.3,31.1,12.5,46.3c0.5,1.4,0.9,2.3,1.9,5.1c0.9-1.9,1.4-2.8,1.4-3.7c4.6-16.7,8.8-32.9,13-49.6c0.5-2.8,1.9-3.7,4.6-3.7
	c6.5,0,13.4,0,20.4,0c-1.4,4.6-2.8,8.8-4.2,13C258.7,249,251.3,270.8,243.9,292.6z"/>
<path id="XMLID_1_" class="st0" d="M489.5,523.4c-3.7,32-33.8,54.2-67.7,54.2c-63,0-126.1,0-189.1,0c-17.6,0-34.8,0.5-52.4-0.5
	c-31.5-2.3-58.9-29.7-59.8-61.2c-0.9-21.8-0.9-44,0-65.8c1.4-33.8,31.1-61.6,64.9-62.1c40.3-0.5,80.6,0,121,0l0,0
	c38.9,0,77.9,0,116.8,0c35.2,0,64,22.7,67.7,57.5C493.3,471,492.8,497.4,489.5,523.4z M236.9,411.7c-21.8,0-43.1,0-64.4,0
	c0,6,0,12,0,18.5c7,0,13.9,0,21.8,0c0,36.6,0,72.3,0,108.5c7,0,13.9,0,20.9,0c0-1.9,0-3.7,0-5.1c0-28.7,0-57.9,0-86.7
	c0-5.6,0.5-10.7,0.5-16.2c5.1,0,10.7-0.5,15.8-0.5c1.9,0,3.7,0,5.1,0C236.9,423.3,236.9,417.7,236.9,411.7z M299.1,445
	c-6,0-12.1,0-18.5,0c0,1.9,0,3.2,0,4.6c0,20.4,0,40.8,0,61.2c0,5.1-1.9,8.3-5.6,10.2c-2.3,0.9-5.6,2.3-7.9,1.4
	c-1.4-0.5-2.3-4.6-2.3-7c0-21.8,0-44,0-65.8c0-1.4,0-2.8,0-4.6c-6.5,0-12.5,0-18.5,0c0,0.9,0,1.9,0,2.8c0,25,0,50.1,0,75.5
	c0,2.3,0.5,4.6,0.9,6.5c1.4,7,6,11.1,13,10.2c5.1-0.9,9.7-3.2,14.4-5.6c2.3-0.9,4.2-3.2,7-5.6c0,3.7,0,6.5,0,9.7
	c6.5,0,12.5,0,18.1,0C299.1,507.1,299.1,476.1,299.1,445z M367.6,484.9c0-8.3,0-16.7-0.9-24.6c-1.9-15.3-16.7-21.3-29.2-12.5
	c-1.4,0.9-2.8,2.3-5.1,4.2c0-13.9,0-27.3,0-40.8c-5.6,0-10.7,0-16.2,0c-0.9,0-1.9,0-2.8,0c0,42.6,0,84.8,0,127c6.5,0,12.5,0,18.5,0
	c0-1.9,0.5-3.7,0.5-6c1.4,0.9,1.9,1.9,2.8,2.8c6.5,5.1,13.9,6.5,21.8,3.7c7.4-2.8,9.3-9.3,10.2-16.7c0-1.4,0-3.2,0-4.6
	C367.6,506.7,367.6,495.6,367.6,484.9z M413.5,513.2c0,1.9,0,3.7-0.5,5.6c-0.9,4.6-3.2,6.5-7.9,6.5c-4.2,0-7.4-1.9-7.4-6.5
	c-0.5-7.9,0-16.2,0-24.6c11.6,0,23.2,0,34.8,0c0-10.7,0.5-20.9,0-31.1c-0.5-7-3.7-12.5-9.7-16.2c-10.2-6-20.9-6-31.1-1.4
	c-9.7,4.6-14.4,13-14.4,23.6c0,14.8,0,29.2,0,44c0,9.3,2.8,17.6,10.7,23.2c8.8,6,24.6,6,33.8,0c8.3-5.1,12.5-17.6,9.7-29.2
	c-6,0-12.1,0-18.5,0C413.5,509.9,413.5,511.3,413.5,513.2z M397.3,465.4c0.5-4.6,3.2-6.5,7.4-7c4.6,0,7.9,1.9,8.3,6.5
	c0.5,4.2,0,8.8,0,13.4c-5.1,0-10.7,0-15.8,0C397.3,474.2,396.8,470.1,397.3,465.4z M344,524.8c-4.2,0.9-7.4-0.5-10.2-3.2
	c-0.9-0.9-0.9-2.3-0.9-3.7c0-8.8,0-17.6,0-26.4c0-8.3,0-17.1,0-25.5c0-4.2,1.9-6.5,6.5-7c4.6-0.5,7.9,1.4,8.8,5.1
	c0.5,1.9,0.5,3.7,0.5,6c0,15.3,0,30.1,0,45.4c0,0.9,0,1.4,0,2.3C348.2,520.6,347.7,523.8,344,524.8z M389.9,344
	c-3.2,2.8-6,5.1-8.8,7c-5.1,3.7-11.1,6-17.6,5.6c-7-0.9-11.1-4.6-12.1-11.6c-0.5-2.3-0.5-4.6-0.5-7c0-27.3,0-55.2,0-82.5
	c0-0.9,0-1.9,0.5-3.2c7,0,13.4,0,20.9,0c0,1.9,0,3.2,0,5.1c0,23.6,0,47.3,0,70.9c0,1.4,0,2.8,0,4.2c0.5,5.6,3.7,7.4,8.3,5.6
	c7-2.8,9.3-6,9.3-13.4c0-22.2,0-44.5,0-67.2c0-1.4,0-3.2,0-5.1c7,0,13.9,0,20.9,0c0,34.3,0,68.6,0,102.9c-7,0-13.4,0-20.9,0
	C389.9,351.4,389.9,348.2,389.9,344z M307.9,357c-5.6,0.5-11.1,0-16.7-1.4c-11.6-2.8-19-12.5-19-24.6c-0.5-9.7,0-19.5,0-28.7l0,0
	c0-8.8,0-17.1,0-26c0-14.4,7-23.2,20.9-26.4c7.9-1.9,15.3-1.9,23.2,0.9c10.7,4.2,17.1,13,17.6,24.6c0,17.6,0,34.8,0,52.4
	C333.4,344.9,325,355.1,307.9,357z M312,275.4c0-6-3.2-8.8-9.3-8.8c-6,0-8.8,2.8-8.8,8.8c0,18.1,0,36.2,0,54.2
	c0,6.5,2.8,9.7,8.8,9.7c6,0,8.8-3.2,9.3-9.7c0-9.3,0-18.1,0-27.3C312,293.5,312,284.7,312,275.4z M243.9,292.6
	c-0.9,2.3-1.4,5.1-1.4,7.9c0,16.7,0,32.9,0,49.6c0,1.4,0,2.8,0,4.6c-8.3,0-15.8,0-24.1,0c0-1.4,0-3.2,0-4.6c0-15.8,0-31.1,0-46.8
	c0-2.8-0.5-5.6-1.4-8.3c-8.3-25.5-16.7-50.5-25.5-75.5c-0.5-1.4-0.9-2.8-1.4-4.6c6,0,12.1,0.5,17.6,0c4.6-0.5,6.5,1.4,7.9,6
	c3.7,15.8,8.3,31.1,12.5,46.3c0.5,1.4,0.9,2.3,1.9,5.1c0.9-1.9,1.4-2.8,1.4-3.7c4.6-16.7,8.8-32.9,13-49.6c0.5-2.8,1.9-3.7,4.6-3.7
	c6.5,0,13.4,0,20.4,0c-1.4,4.6-2.8,8.8-4.2,13C258.7,249,251.3,270.8,243.9,292.6z"/>
</svg>
