<?xml version="1.0" encoding="utf-8"?>
<!-- Generator: Adobe Illustrator 16.0.0, SVG Export Plug-In . SVG Version: 6.00 Build 0)  -->
<!DOCTYPE svg PUBLIC "-//W3C//DTD SVG 1.1//EN" "http://www.w3.org/Graphics/SVG/1.1/DTD/svg11.dtd">
<svg version="1.1" id="Layer_1" xmlns="http://www.w3.org/2000/svg" xmlns:xlink="http://www.w3.org/1999/xlink" x="0px" y="0px"
	 width="512px" height="512px" viewBox="0 0 512 512" enable-background="new 0 0 512 512" xml:space="preserve">
<g id="XMLID_121_">
	<path id="XMLID_126_" opacity="0.2" fill="#FFFFFF" enable-background="new    " d="M559.882-108H-33.382
		C-63.972-108-89-82.972-89-52.382v4.636c0-30.59,25.028-55.619,55.618-55.619h593.264c30.59,0,55.618,25.029,55.618,55.619v-4.636
		C615.5-82.972,590.472-108,559.882-108z"/>
	<path id="XMLID_125_" fill="#B32024" d="M559.882,596.5H-33.382C-63.972,596.5-89,571.472-89,540.882V-52.382
		C-89-82.972-63.972-108-33.382-108h593.264c30.59,0,55.618,25.028,55.618,55.618v593.264
		C615.5,571.472,590.472,596.5,559.882,596.5z"/>
	<path id="XMLID_124_" opacity="0.2" fill="#BE3A26" enable-background="new    " d="M559.882,591.865H-33.382
		c-30.589,0-55.618-25.029-55.618-55.618v4.635c0,30.59,25.028,55.618,55.618,55.618h593.264c30.59,0,55.618-25.028,55.618-55.618
		v-4.635C615.5,566.836,590.472,591.865,559.882,591.865z"/>
	<path id="XMLID_123_" opacity="0.2" fill="#FFFFFF" enable-background="new    " d="M559.882-108H-33.382
		C-63.972-108-89-82.972-89-52.382v4.636c0-30.59,25.028-55.619,55.618-55.619h593.264c30.59,0,55.618,25.029,55.618,55.619v-4.636
		C615.5-82.972,590.472-108,559.882-108z"/>
</g>
<path id="XMLID_109_" fill="#FFFFFF" d="M443.546,382.369c-3.707,31.98-33.835,54.228-67.668,54.228c-63.036,0-126.069,0-189.104,0
	c-17.612,0-34.761,0.463-52.374-0.462c-31.517-2.318-58.862-29.665-59.79-61.182c-0.927-21.782-0.927-44.031,0-65.813
	c1.391-33.836,31.053-61.646,64.888-62.108c40.324-0.465,80.647,0,120.97,0l0,0c38.934,0,77.866,0,116.8,0
	c35.224,0,63.96,22.71,67.667,57.472C447.254,329.995,446.791,356.413,443.546,382.369z M190.946,270.669
	c-21.785,0-43.104,0-64.426,0c0,6.025,0,12.05,0,18.54c6.953,0,13.906,0,21.785,0c0,36.615,0,72.303,0,108.454
	c6.952,0,13.904,0,20.856,0c0-1.854,0-3.707,0-5.098c0-28.735,0-57.936,0-86.672c0-5.561,0.464-10.659,0.464-16.222
	c5.098,0,10.66-0.463,15.759-0.463c1.854,0,3.708,0,5.098,0C190.946,282.256,190.946,276.694,190.946,270.669z M253.054,304.041
	c-6.026,0-12.052,0-18.54,0c0,1.853,0,3.243,0,4.634c0,20.393,0,40.786,0,61.181c0,5.098-1.854,8.343-5.561,10.196
	c-2.318,0.927-5.562,2.317-7.88,1.391c-1.39-0.463-2.318-4.635-2.318-6.952c0-21.784,0-44.031,0-65.815c0-1.391,0-2.781,0-4.634
	c-6.489,0-12.514,0-18.539,0c0,0.926,0,1.853,0,2.78c0,25.027,0,50.057,0,75.548c0,2.316,0.463,4.636,0.927,6.488
	c1.39,6.952,6.026,11.125,12.978,10.198c5.098-0.928,9.733-3.246,14.368-5.563c2.316-0.927,4.171-3.243,6.952-5.562
	c0,3.707,0,6.488,0,9.732c6.488,0,12.514,0,18.075,0C253.054,366.147,253.054,335.094,253.054,304.041z M321.647,343.899
	c0-8.342,0-16.686-0.925-24.564c-1.854-15.294-16.687-21.319-29.201-12.514c-1.389,0.926-2.78,2.318-5.099,4.172
	c0-13.905,0-27.347,0-40.788c-5.561,0-10.659,0-16.221,0c-0.927,0-1.854,0-2.781,0c0,42.642,0,84.819,0,126.997
	c6.49,0,12.515,0,18.541,0c0-1.855,0.461-3.71,0.461-6.026c1.393,0.928,1.855,1.854,2.783,2.78c6.488,5.1,13.904,6.488,21.783,3.707
	c7.416-2.779,9.27-9.268,10.197-16.684c0-1.391,0-3.245,0-4.636C321.647,365.683,321.647,354.56,321.647,343.899z M367.534,372.173
	c0,1.854,0,3.707-0.462,5.562c-0.928,4.635-3.246,6.488-7.881,6.488c-4.172,0-7.415-1.854-7.415-6.488
	c-0.464-7.879,0-16.223,0-24.563c11.588,0,23.174,0,34.761,0c0-10.662,0.463-20.858,0-31.055
	c-0.462-6.952-3.707-12.516-9.733-16.223c-10.196-6.025-20.856-6.025-31.052-1.391c-9.734,4.637-14.37,12.978-14.37,23.639
	c0,14.832,0,29.199,0,44.031c0,9.27,2.782,17.612,10.662,23.174c8.805,6.025,24.563,6.025,33.834,0
	c8.342-5.098,12.513-17.612,9.732-29.199c-6.025,0-12.051,0-18.538,0C367.534,368.928,367.534,370.318,367.534,372.173z
	 M351.312,324.434c0.464-4.635,3.245-6.487,7.416-6.953c4.636,0,7.879,1.854,8.344,6.49c0.462,4.171,0,8.806,0,13.44
	c-5.101,0-10.661,0-15.76,0C351.312,333.24,350.849,329.067,351.312,324.434z M298.013,383.76
	c-4.173,0.926-7.417-0.463-10.197-3.245c-0.928-0.926-0.928-2.316-0.928-3.707c0-8.806,0-17.612,0-26.42c0-8.341,0-17.147,0-25.491
	c0-4.171,1.854-6.489,6.488-6.95c4.637-0.466,7.88,1.389,8.807,5.098c0.464,1.853,0.464,3.708,0.464,6.023
	c0,15.297,0,30.128,0,45.423c0,0.926,0,1.39,0,2.317C302.183,379.589,301.721,382.832,298.013,383.76z M343.896,202.999
	c-3.243,2.782-6.025,5.1-8.806,6.953c-5.098,3.708-11.124,6.026-17.613,5.562c-6.951-0.927-11.124-4.635-12.051-11.587
	c-0.463-2.317-0.463-4.635-0.463-6.952c0-27.346,0-55.156,0-82.501c0-0.927,0-1.854,0.463-3.245c6.953,0,13.441,0,20.857,0
	c0,1.854,0,3.245,0,5.099c0,23.638,0,47.276,0,70.913c0,1.392,0,2.781,0,4.172c0.463,5.562,3.709,7.416,8.344,5.562
	c6.951-2.782,9.269-6.026,9.269-13.442c0-22.247,0-44.495,0-67.205c0-1.391,0-3.244,0-5.099c6.952,0,13.904,0,20.857,0
	c0,34.298,0,68.596,0,102.895c-6.953,0-13.441,0-20.857,0C343.896,210.416,343.896,207.171,343.896,202.999z M261.859,215.978
	c-5.562,0.463-11.124,0-16.685-1.391c-11.588-2.782-19.003-12.515-19.003-24.565c-0.464-9.733,0-19.466,0-28.736l0,0
	c0-8.806,0-17.148,0-25.955c0-14.369,6.952-23.175,20.856-26.419c7.879-1.854,15.294-1.854,23.174,0.927
	c10.66,4.171,17.148,12.978,17.613,24.565c0,17.612,0,34.762,0,52.374C287.351,203.927,279.01,214.124,261.859,215.978z
	 M266.031,134.404c0-6.025-3.245-8.806-9.27-8.806c-6.026,0-8.807,2.781-8.807,8.806c0,18.076,0,36.152,0,54.229
	c0,6.488,2.781,9.733,8.807,9.733c6.024,0,8.806-3.245,9.27-9.733c0-9.27,0-18.077,0-27.347
	C266.031,152.479,266.031,143.673,266.031,134.404z M197.898,151.553c-0.928,2.317-1.391,5.098-1.391,7.878
	c0,16.686,0,32.907,0,49.593c0,1.391,0,2.78,0,4.635c-8.342,0-15.758,0-24.101,0c0-1.391,0-3.245,0-4.635
	c0-15.759,0-31.054,0-46.812c0-2.782-0.464-5.562-1.392-8.343c-8.342-25.492-16.685-50.52-25.491-75.548
	c-0.463-1.391-0.927-2.781-1.39-4.635c6.025,0,12.05,0.464,17.612,0c4.635-0.464,6.489,1.391,7.879,6.024
	c3.708,15.759,8.342,31.054,12.515,46.35c0.463,1.39,0.927,2.317,1.854,5.098c0.927-1.854,1.391-2.781,1.391-3.708
	c4.634-16.686,8.806-32.907,12.978-49.593c0.463-2.78,1.854-3.707,4.634-3.707c6.489,0,13.442,0,20.394,0
	c-1.39,4.634-2.78,8.806-4.171,12.977C212.73,107.985,205.314,129.769,197.898,151.553z"/>
<g id="XMLID_24_" opacity="0.2">
	<path id="XMLID_108_" fill="#FFFFFF" d="M170.089,293.842c5.098,0,10.66-0.462,15.758-0.462c1.854,0,3.708,0,5.099,0
		c0-1.391,0-3.244,0-4.635c-1.854,0-3.708,0-5.099,0c-5.098,0-10.66,0.464-15.758,0.464c0,5.561-0.464,10.659-0.464,16.221
		c0,28.737,0,57.937,0,86.674c0,1.389,0,2.78,0,4.634c0-28.735,0-57.937,0-86.672C169.625,304.503,170.089,299.405,170.089,293.842z
		"/>
	<path id="XMLID_107_" fill="#FFFFFF" d="M162.209,77.858c4.636-0.463,6.489,1.391,7.88,6.026
		c3.708,15.758,8.342,31.053,12.514,46.349c0.463,1.39,0.926,2.317,1.854,5.099c0.927-1.854,1.39-2.782,1.39-3.708
		c4.635-16.686,8.806-32.908,12.978-49.593c0.463-2.781,1.854-3.708,4.634-3.708c6.025,0,12.515,0,19.003,0
		c0.464-1.391,0.927-3.244,1.391-4.635c-7.416,0-13.905,0-20.394,0c-2.781,0-3.708,0.927-4.634,3.708
		c-4.172,16.685-8.808,33.371-12.979,49.593c-0.463,0.927-0.927,1.854-1.39,3.708c-0.928-2.317-1.391-3.708-1.854-5.098
		c-4.172-15.295-8.807-31.054-12.514-46.349c-1.391-4.635-3.244-6.489-7.88-6.025c-5.562,0.464-11.587,0-17.612,0
		c0.463,1.854,0.927,3.244,1.39,4.635C151.549,78.322,157.111,78.322,162.209,77.858z"/>
	<path id="XMLID_106_" fill="#FFFFFF" d="M226.171,165.92L226.171,165.92c0,3.708,0,7.879,0,11.587
		C226.171,173.336,226.171,169.629,226.171,165.92z"/>
	<path id="XMLID_105_" fill="#FFFFFF" d="M74.611,313.31c1.391-33.835,31.053-61.644,64.888-62.107c40.324-0.463,80.647,0,120.97,0
		l0,0c38.934,0,77.866,0,116.8,0c35.224,0,63.96,22.713,67.667,57.473c1.392,11.586,1.855,23.638,1.855,35.225
		c0-13.44-0.464-26.881-1.855-39.858c-3.707-34.763-32.907-57.475-67.667-57.475c-38.934,0-77.866,0-116.8,0l0,0
		c-40.323,0-80.646-0.462-120.97,0c-33.834,0.465-63.034,28.737-64.888,62.108c-0.464,11.586-0.927,23.174-0.464,35.225
		C73.684,333.703,74.147,323.506,74.611,313.31z"/>
	<path id="XMLID_104_" fill="#FFFFFF" d="M247.955,193.266c0,6.489,2.781,9.733,8.807,9.733c6.024,0,8.806-3.244,9.27-9.733
		c0-9.27,0-18.076,0-27.346c0-0.927,0-1.853,0-2.78c0,8.342,0,16.685,0,25.492c0,6.024-3.245,9.269-9.27,9.733
		c-6.026,0-8.807-2.781-8.807-9.733c0-16.686,0-33.372,0-49.594l0,0C247.955,157.115,247.955,175.19,247.955,193.266z"/>
	<path id="XMLID_103_" fill="#FFFFFF" d="M325.821,120.036c0,23.637,0,47.275,0,70.913c0,1.39,0,2.781,0,4.172
		c0.463,5.562,3.707,7.416,8.343,5.562c6.952-2.781,9.27-6.026,9.27-13.442c0-1.39,0-3.244,0-4.634c0,7.416-2.317,10.66-9.27,13.441
		c-5.099,1.854-8.343,0-8.343-5.562c0-1.391,0-2.781,0-4.172c0-23.637,0-47.275,0-70.913
		C325.821,117.254,325.821,118.645,325.821,120.036z"/>
	<path id="XMLID_102_" fill="#FFFFFF" d="M364.754,110.766c-6.953,0-13.905,0-20.857,0c0,1.854,0,3.244,0,4.635
		c6.952,0,13.904,0,20.857,0C364.754,113.547,364.754,112.156,364.754,110.766z"/>
	<path id="XMLID_101_" fill="#FFFFFF" d="M148.305,293.38c0-1.391,0-3.244,0-4.635c-7.416,0-14.369,0-21.785,0
		c0,1.391,0,3.244,0,4.635C133.937,293.38,140.889,293.38,148.305,293.38z"/>
	<path id="XMLID_100_" fill="#FFFFFF" d="M304.964,114.937c6.952,0,13.441,0,20.857,0c0-1.39,0-2.78,0-4.634
		c-7.416,0-13.905,0-20.857,0c0,1.39-0.464,2.317-0.464,3.244c0,1.39,0,3.244,0,4.635
		C304.5,117.718,304.964,116.328,304.964,114.937z"/>
	<path id="XMLID_99_" fill="#FFFFFF" d="M226.171,139.965c0-14.368,6.952-23.175,20.856-26.418
		c7.879-1.854,15.294-1.854,23.174,0.927c10.66,4.171,17.148,12.978,17.613,24.564c0,15.759,0,31.981,0,47.739l0,0
		c0-17.612,0-34.761,0-52.374c0-11.587-6.49-20.394-17.613-24.565c-7.416-2.781-15.295-2.781-23.174-0.927
		c-13.904,3.244-20.856,12.05-20.856,26.419c0,8.806,0,17.148,0,25.955l0,0C226.171,154.334,226.171,146.917,226.171,139.965z"/>
	<path id="XMLID_98_" fill="#FFFFFF" d="M172.87,213.66L172.87,213.66c0-7.879,0-16.222,0-24.102c0,6.489,0,12.978,0,19.466
		C172.87,210.416,172.87,211.805,172.87,213.66z"/>
	<path id="XMLID_97_" fill="#FFFFFF" d="M286.423,401.835c0-1.854,0.465-3.707,0.465-6.025c1.391,0.928,1.854,1.854,2.781,2.781
		c6.488,5.099,13.904,6.49,21.783,3.709c7.416-2.783,9.271-9.271,10.195-16.688c0-1.39,0-3.243,0-4.633c0-1.391,0-3.245,0-4.636
		c0,1.391,0,3.245,0,4.636c-0.461,6.951-2.314,13.904-10.195,16.684c-7.879,2.781-15.295,1.393-21.783-3.707
		c-0.928-0.464-1.854-1.391-2.781-2.78c0,2.316-0.465,4.171-0.465,6.026c-6.024,0-12.049,0-18.538,0c0,1.389,0,3.242,0,4.633
		C274.374,401.835,280.398,401.835,286.423,401.835z"/>
	<path id="XMLID_96_" fill="#FFFFFF" d="M351.312,353.171c0,5.561,0,10.659,0,15.757c0-3.708,0-7.416,0-11.124
		c11.587,0,23.173,0,34.76,0c0-6.488,0-12.978,0-19.003c0,4.636,0,9.733,0,14.37C374.485,353.171,362.899,353.171,351.312,353.171z"
		/>
	<path id="XMLID_95_" fill="#FFFFFF" d="M302.183,329.067c0-1.854,0-3.708-0.462-6.023c-0.928-4.173-4.174-6.025-8.806-5.098
		c-4.637,0.461-6.492,2.779-6.492,6.95c0,8.344,0,17.15,0,25.491v0.465c0-6.953,0-14.369,0-21.321c0-4.172,1.855-6.487,6.492-6.953
		c4.632-0.462,7.878,1.393,8.806,5.1c0.462,1.854,0.462,3.707,0.462,6.025c0,13.441,0,27.347,0,40.787l0,0
		C302.183,359.195,302.183,343.899,302.183,329.067z"/>
	<path id="XMLID_31_" fill="#FFFFFF" d="M358.729,322.578c4.636,0,7.879,1.855,8.344,6.489c0,0.928,0,2.317,0,3.245
		c0-2.781,0-5.099,0-7.879c-0.465-4.635-3.708-6.487-8.344-6.487c-4.635,0-6.952,2.314-7.416,6.95c-0.464,3.245,0,6.488,0,9.733
		c0-1.854,0-3.245,0-5.099C351.776,324.896,354.558,322.578,358.729,322.578z"/>
	<path id="XMLID_30_" fill="#FFFFFF" d="M331.382,376.808c0,9.271,2.782,17.611,10.659,23.174c8.808,6.027,24.566,6.027,33.837,0
		c6.952-4.635,11.122-14.831,10.659-25.028c-0.462,8.344-4.635,16.223-10.659,20.394c-9.271,6.025-25.493,6.025-33.837,0
		c-7.877-5.562-10.659-13.904-10.659-23.174c0-6.49,0-12.978,0-19.467C331.382,360.584,331.382,368.928,331.382,376.808z"/>
	<path id="XMLID_29_" fill="#FFFFFF" d="M199.752,387.005c0,2.316,0.463,4.633,0.927,6.487c1.391,6.952,6.025,11.123,12.978,10.197
		c5.098-0.927,9.733-3.245,14.369-5.562c2.317-0.926,4.171-3.244,6.952-5.562c0-1.39,0-2.78,0-4.635
		c-2.78,2.318-4.634,4.635-6.952,5.562c-4.635,2.317-9.271,4.636-14.369,5.563c-6.952,0.926-11.587-3.246-12.978-10.198
		c-0.463-2.317-0.927-4.635-0.927-6.488c0-23.638,0-47.275,0-70.915l0,0C199.752,336.483,199.752,361.512,199.752,387.005z"/>
	<path id="XMLID_28_" fill="#FFFFFF" d="M148.305,401.835c6.952,0,13.904,0,20.856,0c0-1.854,0-3.244,0-4.633
		c-6.952,0-13.904,0-20.856,0C148.305,399.056,148.305,400.444,148.305,401.835z"/>
	<path id="XMLID_27_" fill="#FFFFFF" d="M234.514,340.191c0,10.196,0,19.931,0,29.664c0,0,0,0,0-0.465
		C234.514,360.122,234.514,349.925,234.514,340.191z"/>
	<path id="XMLID_26_" fill="#FFFFFF" d="M234.977,401.835c6.489,0,12.515,0,18.077,0c0-1.391,0-3.244,0-4.633
		c-6.026,0-12.052,0-18.077,0C234.977,399.056,234.977,400.444,234.977,401.835z"/>
	<path id="XMLID_25_" fill="#FFFFFF" d="M218.755,308.675L218.755,308.675c0,11.124,0,22.247,0,33.372c0-9.734,0-19.003,0-28.737
		C218.755,311.919,218.755,310.065,218.755,308.675z"/>
</g>
<g id="XMLID_2_" opacity="0.2">
	<path id="XMLID_23_" fill="#202020" d="M234.514,304.041c0,1.853,0,3.243,0,4.634c6.488,0,12.514,0,18.54,0
		c0-1.391,0-3.245,0-4.634C247.028,304.041,241.002,304.041,234.514,304.041z"/>
	<path id="XMLID_22_" fill="#202020" d="M228.953,380.052c-2.318,0.928-5.562,2.317-7.88,1.391c-1.39-0.463-2.318-4.635-2.318-6.952
		c0-10.66,0-21.784,0-32.443c0,12.513,0,24.562,0,37.078c0,2.317,0.928,6.487,2.318,6.953c2.317,0.927,5.562,0,7.88-1.393
		c4.171-1.854,6.024-5.097,5.561-10.195c0-1.392,0-2.781,0-4.172C234.977,374.953,233.124,378.198,228.953,380.052z"/>
	<path id="XMLID_21_" fill="#202020" d="M172.87,218.295c8.343,0,15.759,0,24.101,0c0-1.854,0-3.244,0-4.635
		c-8.342,0-15.757,0-24.101,0l0,0C172.87,215.051,172.87,216.441,172.87,218.295z"/>
	<path id="XMLID_20_" fill="#202020" d="M126.521,270.669c0,1.391,0,3.243,0,4.635c21.322,0,42.641,0,64.426,0
		c0-1.392,0-3.244,0-4.635C169.625,270.669,148.305,270.669,126.521,270.669z"/>
	<path id="XMLID_19_" fill="#202020" d="M321.647,343.899c0-8.342,0-16.686-0.925-24.564c-1.854-15.294-16.687-21.319-29.201-12.514
		c-1.389,0.926-2.78,2.318-5.099,4.172c0,1.389,0,3.244,0,4.634c2.318-1.854,3.71-3.245,5.099-4.173
		c12.515-9.268,27.812-2.779,29.201,12.517c0.925,8.342,0.464,16.221,0.925,24.563c0,9.27,0,18.541,0,28.273l0,0
		C321.647,365.683,321.647,354.56,321.647,343.899z"/>
	<path id="XMLID_18_" fill="#202020" d="M286.423,270.205c-5.561,0-10.659,0-16.221,0c-0.927,0-1.854,0-2.781,0
		c0,1.391,0,3.244,0,4.635c0.928,0,1.854,0,2.781,0c5.1,0,10.196,0,16.221,0C286.423,273.449,286.423,272.06,286.423,270.205z"/>
	<path id="XMLID_17_" fill="#202020" d="M234.514,308.675c0,10.66,0,20.856,0,31.517c0-8.807,0-18.075,0-26.882
		C234.514,311.919,234.514,310.528,234.514,308.675z"/>
	<path id="XMLID_16_" fill="#202020" d="M286.888,381.442c0,1.39,0,3.243,0.928,3.708c2.78,2.78,6.488,4.171,10.197,3.245
		c3.708-0.928,4.17-4.636,4.17-7.881c0-0.463,0-1.39,0-2.316c0-1.391,0-3.245,0-4.636c0,0.464,0,1.391,0,1.854
		c-0.462,3.245-0.462,6.488-4.17,7.881c-4.173,0.926-7.417-0.465-10.197-3.245c-0.928-0.927-0.928-2.317-0.928-3.708
		c0-8.807,0-17.148,0-25.956c0,1.391,0,2.783,0,4.172C286.423,363.83,286.423,372.636,286.888,381.442z"/>
	<path id="XMLID_15_" fill="#202020" d="M197.898,151.553c-0.928,2.317-1.391,5.098-1.391,7.878c0,16.686,0,32.907,0,49.593
		c0,1.391,0,2.78,0,4.635c0-16.686,0-32.908,0-49.593c0-2.782,0.463-5.1,1.391-7.88c7.416-21.784,14.832-43.567,22.247-65.352
		c1.391-4.171,2.782-7.879,4.171-12.978c-0.463,0-0.927,0-1.39,0c-0.927,2.781-1.854,5.562-2.782,8.343
		C212.73,107.985,205.314,129.769,197.898,151.553z"/>
	<path id="XMLID_14_" fill="#202020" d="M218.755,308.675L218.755,308.675c0-1.391,0-3.245,0-4.634c-6.489,0-12.514,0-18.539,0
		c0,0.926,0,1.853,0,2.78c0,1.391,0,3.244,0,4.633c0-0.926,0-1.854,0-2.779C206.241,308.675,212.266,308.675,218.755,308.675z"/>
	<path id="XMLID_7_" fill="#202020" d="M226.171,161.286L226.171,161.286c0,1.391,0,3.244,0,4.635l0,0
		C226.171,164.53,226.171,162.676,226.171,161.286z"/>
	<path id="XMLID_3_" fill="#202020" d="M245.638,219.222c5.098,1.39,11.124,1.854,16.685,1.39
		c17.149-1.854,25.493-12.051,25.493-29.199c0-1.391,0-3.244,0-4.635c0,17.149-8.344,27.346-25.493,29.2
		c-5.561,0.463-11.123,0-16.685-1.391c-11.588-2.782-19.003-12.515-19.003-24.565c0-4.172,0-8.342,0-12.978
		c0,6.025,0,11.588,0,17.613C226.634,206.708,234.049,216.441,245.638,219.222z"/>
	<path id="XMLID_87_" fill="#202020" d="M266.031,134.404c0-6.025-3.245-8.806-9.27-8.806c-6.026,0-8.807,2.781-8.807,8.806
		c0,1.39,0,3.245,0,4.634c0-6.025,2.781-8.806,8.807-8.806c6.024,0,9.27,2.78,9.27,8.806c0,8.343,0,16.223,0,24.565
		c0-0.463,0-1.39,0-1.854C266.031,152.479,266.031,143.673,266.031,134.404z"/>
	<path id="XMLID_88_" fill="#202020" d="M171.479,158.505c0.928,2.781,1.391,5.562,1.391,8.343c0,7.416,0,15.295,0,22.711
		c0-9.27,0-18.076,0-27.345c0-2.782-0.463-5.562-1.391-8.343c-8.342-25.492-16.685-50.52-25.492-75.548l0,0c-0.463,0-0.926,0-1.39,0
		c0.463,2.317,0.927,3.708,1.39,4.635C154.331,107.985,163.137,133.477,171.479,158.505z"/>
	<path id="XMLID_89_" fill="#202020" d="M443.546,382.369c-3.707,31.98-33.835,54.228-67.668,54.228c-63.036,0-126.069,0-189.104,0
		c-17.612,0-34.761,0.463-52.374-0.462c-31.517-2.318-58.862-29.665-59.79-61.182c-0.464-10.196-0.464-20.394-0.464-30.589
		c0,11.587,0,23.638,0.464,35.225c1.391,31.518,28.736,59.326,59.79,61.18c17.612,0.927,34.761,0.465,52.374,0.465
		c63.035,0,126.068,0,189.104,0c33.833,0,63.961-22.249,67.668-54.229c1.854-13.906,2.317-28.273,2.317-42.641
		C445.863,356.878,445.4,369.855,443.546,382.369z"/>
	<path id="XMLID_90_" fill="#202020" d="M367.072,332.312c0,1.854,0,3.708,0,6.025c-5.101,0-10.661,0-15.76,0
		c0-1.391,0-2.317,0-3.708c0,2.781,0,5.562,0,8.344c5.561,0,10.659,0,15.76,0C367.072,339.266,367.534,335.558,367.072,332.312z"/>
	<path id="XMLID_91_" fill="#202020" d="M386.072,322.116c-0.462-6.952-3.706-12.516-9.731-16.223
		c-9.733-6.025-20.394-6.025-30.589-1.391c-9.734,4.637-14.37,12.978-14.37,23.639c0,7.879,0,16.223,0,24.102
		c0-6.489,0-12.978,0-19.467c0-10.66,4.636-19.004,14.37-23.637c10.195-4.637,20.393-4.637,30.589,0.926
		c6.025,3.707,9.27,9.733,9.731,16.222c0.465,3.708,0.465,7.88,0.465,11.586C386.537,332.776,386.537,327.678,386.072,322.116z"/>
	<path id="XMLID_92_" fill="#202020" d="M305.427,208.099c1.391,6.952,5.562,11.123,12.051,11.586
		c6.489,0.464,12.516-1.854,17.613-5.562c2.78-1.854,5.562-4.172,8.806-6.952c0-1.391,0-2.781,0-4.635
		c-3.243,2.781-6.025,5.099-8.806,6.953c-5.098,3.708-11.124,6.025-17.613,5.562c-6.951-0.927-11.124-4.635-12.051-11.588
		c-0.463-2.317-0.463-4.635-0.463-6.952c0-25.955,0-51.91,0-77.866l0,0c0,27.346,0,55.155,0,82.501
		C304.5,203.463,304.964,205.781,305.427,208.099z"/>
	<path id="XMLID_93_" fill="#202020" d="M343.896,213.66c0,1.391,0,3.245,0,4.635c7.416,0,13.904,0,20.857,0c0-1.39,0-3.244,0-4.635
		C357.801,213.66,351.312,213.66,343.896,213.66z"/>
	<path id="XMLID_94_" fill="#202020" d="M386.072,366.609c-6.023,0-12.049,0-18.538,0c0,2.318,0,3.709,0,5.563
		c0,1.854,0,3.707-0.462,5.562c-0.928,4.635-3.246,6.488-7.881,6.488c-4.172,0-7.415-1.854-7.415-6.488c0-2.781,0-6.026,0-8.807
		c0,4.635,0,8.807,0,13.441c0,4.171,3.243,6.026,7.415,6.488c4.635,0,6.953-1.853,7.881-6.488c0.462-1.854,0.462-3.708,0.462-5.562
		c0-1.854,0-3.245,0-5.562c6.489,0,12.515,0,18.538,0c0.465,1.391,0.465,2.781,0.465,4.171
		C387,372.636,386.537,369.391,386.072,366.609z"/>
</g>
</svg>
