<svg height="498.00042724609375" overflow="visible" viewBox="0 0 345.3463134765625  498.00042724609375" width="345.3463134765625" xmlns="http://www.w3.org/2000/svg"><g><defs></defs> <path d="M17.0919189453125 0.00042724609375 C17.0919189453125 0.00042724609375 71.0919189453125 28.00042724609375 117.0919189453125 52.000427246093636 C163.0919189453125 76.00042724609352 186.0919189453125 94.00042724609375 186.0919189453125 94.00042724609375 C186.0919189453125 94.00042724609375 234.183837890625 71.00085449218716 273.0919189453125 47.00042724609352 C312 22.999999999999886 331 14.999999999999886 331 14.999999999999886 C331 14.999999999999886 341.2794189453125 16.91912841796875 344.2794189453125 21.41912841796875 C347.2794189453125 25.91912841796875 343 36.999999999999886 343 36.999999999999886 C343 36.999999999999886 256.0919189453125 86.00042724609375 195.0919189453125 125.00042724609375 C134.0919189453125 164.00042724609375 54.0919189453125 216.00042724609375 54.0919189453125 216.00042724609375 C54.0919189453125 216.00042724609375 92.9327392578125 220.52166748046875 135.4327392578125 235.27166748046875 C177.9327392578125 250.02166748046875 243 277 243 277 C243 277 147.0919189453125 416 147.0919189453125 416 C147.0919189453125 416 137.0919189453125 375.00042724609375 137.0919189453125 375.00042724609375 C137.0919189453125 375.00042724609375 204.0919189453125 290.00042724609375 204.0919189453125 290.00042724609375 C204.0919189453125 290.00042724609375 168.40960693359375 270.7357177734375 132.40960693359375 258.2357177734375 C96.40960693359375 245.7357177734375 51.0919189453125 236.00042724609375 51.0919189453125 236.00042724609375 C51.0919189453125 236.00042724609375 137.09191894531273 375.00042724609375 137.09191894531273 375.00042724609375 C137.09191894531273 375.00042724609375 147.5535888671875 416.21478271484375 147.5535888671875 416.21478271484375 C147.5535888671875 416.21478271484375 150.09191894531273 498.00042724609375 150.09191894531273 498.00042724609375 C150.09191894531273 498.00042724609375 118.09191894531273 498.00042724609375 118.09191894531273 498.00042724609375 C118.09191894531273 498.00042724609375 118.0919189453125 409.00042724609375 118.0919189453125 409.00042724609375 C118.0919189453125 409.00042724609375 13.0919189453125 210.00042724609375 13.0919189453125 210.00042724609375 C13.0919189453125 210.00042724609375 57.5174560546875 183.71673583984375 95.0174560546875 158.71673583984375 C132.5174560546875 133.71673583984375 163.0919189453125 110.00042724609375 163.0919189453125 110.00042724609375 C163.0919189453125 110.00042724609375 140.8419189453125 93.75042724609375 100.0919189453125 71.00042724609375 C59.3419189453125 48.25042724609375 0.0919189453125 19.00042724609375 0.0919189453125 19.00042724609375 C0.0919189453125 19.00042724609375 -0.863525390625 9.36236572265625 3.386474609375 4.61236572265625 C7.636474609375 -0.13763427734375 17.0919189453125 0.00042724609375 17.0919189453125 0.00042724609375 Z" style="stroke: rgb(102, 102, 102); stroke-width: 0; stroke-linecap: butt; stroke-linejoin: miter; fill: rgb(31, 214, 255);"></path></g></svg>