<svg height="51.0179443359375" overflow="visible" viewBox="0 0 3582  51.0179443359375" width="3582" xmlns="http://www.w3.org/2000/svg"><g><defs></defs> <path d="M1147 4.2501509411622465 C1147 4.2501509411622465 1466 -0.000051845037887687795 1787 0.00003286646278866101 C2108 0.00011757786251109792 2437 4.25002896656224 2437 4.25002896656224 C2437 4.25002896656224 3582 6.743315003661337 3582 6.743315003661337 C3582 6.743315003661337 3582 34.39222384506138 3582 34.39222384506138 C3582 34.39222384506138 2437 34.391965829462606 2437 34.391965829462606 C2437 34.391965829462606 2104 51.60228825656304 1787 51.00274201156208 C1470 50.403195766662975 1147 34.49385169856214 1147 34.49385169856214 C1147 34.49385169856214 0 34.74348701406234 0 34.74348701406234 C0 34.74348701406234 1 4.25040895676284 1 4.25040895676284 C1 4.25040895676284 1147 4.2501509411622465 1147 4.2501509411622465 Z" style="stroke: rgb(102, 102, 102); stroke-width: 0; stroke-linecap: butt; stroke-linejoin: miter; fill: rgb(24, 112, 184);"></path></g></svg>