<svg height="3.625rem" overflow="visible" viewBox="0 0 216.99997039335244  48.09033203125" width="216.99997039335244" xmlns="http://www.w3.org/2000/svg"><g><defs></defs> <path d="M33.99997039335244 46.089831321622114 C33.99997039335244 46.089831321622114 51.99997039335244 36.00589996583767 51.99997039335244 36.00589996583767 C51.99997039335244 36.00589996583767 216.99997039335244 35.005846946622114 216.99997039335244 35.005846946622114 C216.99997039335244 35.005846946622114 213.1092843581962 30.05887848146267 213.1092843581962 30.05887848146267 C213.1092843581962 30.05887848146267 53.99997039335244 30.058886594200885 53.99997039335244 30.058886594200885 C53.99997039335244 30.058886594200885 52.99997039335244 29.4605837887284 48.99997039335244 32.28590259234625 C44.99997039335244 35.111221395962275 33.99997039335244 46.089831321622114 33.99997039335244 46.089831321622114 Z" style="stroke: rgb(102, 102, 102); stroke-width: 0; stroke-linecap: butt; stroke-linejoin: miter; fill: rgb(201, 43, 22);"></path></g><g><defs></defs> <path d="M25.010991633634887 0.02978234878355579 C8.613440400138415 -0.6999659669781977 -0.802235463234183 12.139592028532206 0.05373097692881856 25.843013538522428 C0.9096974170914791 39.546435048518106 12.960346571798823 48.090358268067575 25.010991633634887 48.090358268067575 C37.06163669547101 48.090358268067575 43.55044557492107 38.8206312974271 47.24999111947608 34.150463187894275 C50.949536664031314 29.480295078370546 58.38200872795011 30.477877023844485 58.38200872795011 30.477877023844485 C58.38200872795011 30.477877023844485 215.99997478793176 30.479200288131324 215.99997478793176 30.479200288131324 C215.99997478793176 30.479200288131324 208.99997478793176 19.35552792335875 208.99997478793176 19.35552792335875 C208.99997478793176 19.35552792335875 61.16292681914331 19.35420465907191 61.16292681914331 19.35420465907191 C61.16292681914331 19.35420465907191 55.464341795887776 18.400074558772758 51.361339079533025 16.559707866261306 C47.258336363178444 14.719341173751673 41.408542867131416 0.7595306645416713 25.010991633634887 0.02978234878355579 Z" style="stroke: rgb(102, 102, 102); stroke-width: 0; stroke-linecap: butt; stroke-linejoin: miter; fill: rgb(77, 77, 77);"></path></g></svg>