<svg height="300" overflow="visible" viewBox="0 0 3732.0000027592478  314.8290669583512" width="3732.0000027592478" xmlns="http://www.w3.org/2000/svg"><g><defs></defs> <path d="M4.000051600188044 208.82547731620434 C4.000051600188044 208.82547731620434 3729.0000516001883 208.82665714920586 3729.0000516001883 208.82665714920586 C3729.0000516001883 208.82665714920586 3728.0000516001883 287.21414919120434 3728.0000516001883 287.21414919120434 C3728.0000516001883 287.21414919120434 3451.2504503791088 307.91550824577644 3106.0000516001883 309.2136881567021 C2760.7496528212673 310.511868067626 2482.0000516001883 293.2136881567021 2464.9984564845054 292.4064078004012 C2447.9968613688234 291.5991274441003 2132.9984646861185 269.140703733201 1806.998464686122 268.140703733201 C1480.998464686125 267.140703733201 1201.996877772063 285.0676769392994 1182.9984646861255 291.14068254800077 C1164.000051600188 297.2136881567021 892.000051600188 321.2136881567021 764.000051600188 313.2136881567021 C636.000051600188 305.2136881567021 4.000076020658071 265.21414919120434 4.000076020658071 265.21414919120434 C4.000076020658071 265.21414919120434 4.000051600188044 208.82547731620434 4.000051600188044 208.82547731620434 Z" style="stroke: rgb(102, 102, 102); stroke-width: 0; stroke-linecap: butt; stroke-linejoin: miter; fill: rgb(225, 255, 0);"></path></g><g><defs></defs> <path d="M0.000027179718017578125 191.13625592510652 C0.000027179718017578125 191.13625592510652 3730.000027179718 199.169307489703 3730.000027179718 199.169307489703 C3730.000027179718 199.169307489703 3732.000027179718 287.2134929828062 3732.000027179718 287.2134929828062 C3732.000027179718 287.2134929828062 2580.000027179718 293.2133157424032 2465.0000189781103 281.13723542139996 C2350.000010776503 269.06115510039854 2157.5001838143207 256.03781651700046 1836.7501858647206 240.2877928186008 C1516.0001879151105 224.53776912020112 0.000027179718017578125 228.13680743190707 0.000027179718017578125 228.13680743190707 C0.000027179718017578125 228.13680743190707 0.000027179718017578125 191.13625592510652 0.000027179718017578125 191.13625592510652 Z" style="stroke: rgb(102, 102, 102); stroke-width: 0; stroke-linecap: butt; stroke-linejoin: miter; fill: rgb(191, 255, 0);"></path></g><g><defs></defs> <path d="M1183.0000135633682 48.397596646598686 C1216.0000135633682 35.582166959098686 1326.5555555555563 -5.592453511701024 1476.555569118928 0.6374378245000116 C1626.5555826822992 6.867329160799272 1889.8889024522618 77.4518746042013 2063.8889024522637 75.39218994099974 C2257.8889024522355 73.33250527780001 2392.000028822157 25.213026334098686 2464.5555691189375 13.096563177299686 C2537.1111094157177 0.9801000205006858 2766.638898637563 51.683910544899845 3000.000013563368 65.21302633409869 C3233.361128489173 78.74214212329935 3724.000028822157 67.21242396979505 3724.000028822157 67.21242396979505 C3724.000028822157 67.21242396979505 3728.000013563368 212.21222318169384 3728.000013563368 212.21222318169384 C3728.000013563368 212.21222318169384 0.000013563368156610522 212.48613622409903 0.000013563368156610522 212.48613622409903 C0.000013563368156610522 212.48613622409903 2.0000135633681566 79.21282554600111 2.0000135633681566 79.21282554600111 C2.0000135633681566 79.21282554600111 712.0000135633682 59.213026334098686 842.0000135633682 83.21302633409869 C972.000013563368 107.21302633409869 1150.0000135633682 61.213026334098686 1183.0000135633682 48.397596646598686 Z" style="stroke: rgb(102, 102, 102); stroke-width: 0; stroke-linecap: butt; stroke-linejoin: miter; fill: rgb(0, 255, 98);"></path></g></svg>