<svg height="207.03425855736043" overflow="visible" viewBox="0 0 758.2674073678002  207.03425855736043" width="758.2674073678002" xmlns="http://www.w3.org/2000/svg"><g><defs></defs> <path d="M594.2534987919415 43.406017678650485 C624.119077404763 44.41688007200044 634.621300250307 43.86189796744044 634.621283624689 94.93574178355045 C634.621266999073 146.00958559968046 630.798002445427 154.9015263947805 594.2534987919415 154.14010564878043 C557.708995138457 153.37868490279044 556.46236445056 145.52067137229045 557.321270115172 94.93574178355045 C558.180175779784 44.35081219483045 564.38792017912 42.39515528527046 594.2534987919415 43.406017678650485 Z" style="stroke: rgb(0, 0, 0); stroke-width: 29; stroke-linecap: butt; stroke-linejoin: miter; fill: rgba(0, 0, 0, 0);"></path></g><g><defs></defs> <path d="M184.93800249388997 182.94815612020045 C184.93800249388997 182.94815612020045 180.16708032428997 204.97300574719043 169.82962469021996 205.93339140833046 C159.49216905613994 206.89377706950046 138.60982931570996 207.03426827065044 138.60982931570996 207.03426827065044 C138.60982931570996 207.03426827065044 144.96780274088994 204.87023079089045 144.96780274088994 204.87023079089045 C144.96780274088994 204.87023079089045 153.83964203436992 201.80453324682043 159.91097810562994 190.65249259279045 C165.98231417690997 179.50045193875047 167.30630442945997 156.70360352934046 171.25323492278997 119.36696737692047 C175.20016541613992 82.03033122451048 178.22135465515996 52.541199408710455 178.22135465515996 52.541199408710455 C178.22135465515996 52.541199408710455 195.42142534347997 50.71276359625047 198.42544566032993 52.805972468390465 C201.42946597718995 54.89918134052046 198.71672734620992 55.26206835751047 198.71672734620992 55.26206835751047 C198.71672734620992 55.26206835751047 211.50667190207994 52.26564403148048 222.74524948150994 57.34747761132046 C233.98382706095995 62.42931119117047 237.35959980162997 69.49024009506046 239.71769608154992 77.77350714275046 C242.07579236145992 86.05677419043046 249.14260571334992 101.13734793141047 237.81205079752996 131.09591738610044 C226.48149588170995 161.05448684080045 185.62664551377995 153.73903753356046 185.62664551377995 153.73903753356046 C185.62664551377995 153.73903753356046 184.83354052402993 128.24697654457043 184.83354052402993 128.24697654457043 C184.83354052402993 128.24697654457043 203.89500945742995 143.14539038703043 214.35340509967992 129.40185855595047 C224.81180074192994 115.65832672489047 225.25034915918994 112.34171270542048 223.34160190217992 91.66492386483047 C221.43285464515995 70.98813502422045 198.04122860050992 72.56346295693048 198.04122860050992 72.56346295693048 C198.04122860050992 72.56346295693048 196.24649218581996 76.14013230897048 192.18991573818997 115.13229054633048 C188.13333929053996 154.12444878367046 184.93800249388997 182.94815612020045 184.93800249388997 182.94815612020045 Z" style="stroke: rgb(0, 0, 0); stroke-width: 0; stroke-linecap: butt; stroke-linejoin: miter; fill: rgb(0, 0, 0);"></path></g><g><defs></defs> <path d="M298.90236767317083 136.68412638060016 C298.90236767317083 136.68412638060016 310.4286456714394 139.02353671273875 312.7311453845431 122.1263052756672 C315.03364509765345 105.2290738385549 318.4508158781714 76.2125506501966 318.4508158781714 76.2125506501966 C318.4508158781714 76.2125506501966 316.3706737819042 72.98824169401591 316.3706737819042 72.98824169401591 C316.3706737819042 72.98824169401591 322.6050783310807 55.82715836738562 322.6050783310807 55.82715836738562 C322.6050783310807 55.82715836738562 324.1168138458979 53.39458428640718 325.7937601622252 53.38099295743508 C327.4707064785631 53.36740162847211 329.31286359642183 55.7727930515246 329.31286359642183 55.7727930515246 C329.31286359642183 55.7727930515246 331.1944273226936 59.98475143855815 337.42935210979624 59.73152106091548 C343.66427689687896 59.478290683274494 353.9750630056176 55.98328668604405 353.9750630056176 55.98328668604405 C353.9750630056176 55.98328668604405 365.4468217101837 55.189085513070594 374.9972303198107 63.35819314764343 C384.5476389294387 71.52730078222625 384.34605137565245 89.20039941825094 382.8356820266159 98.81249815570881 C381.3253126776102 108.42459689317418 378.0920925150051 112.45673929880077 378.0920925150051 112.45673929880077 C378.0920925150051 112.45673929880077 366.40449118655624 121.52508398125347 370.4262462283036 130.21145571558088 C374.4480012700618 138.89782744991743 387.3204527894155 139.28948361715794 387.3204527894155 139.28948361715794 C387.3204527894155 139.28948361715794 387.13256804959065 158.24608278247797 387.13256804959065 158.24608278247797 C387.13256804959065 158.24608278247797 367.27920119681403 158.38337860978788 359.65738837156675 150.9884857295508 C352.03557554628776 143.59359284929639 348.9659924945661 134.41895666148827 349.8757962811783 124.76835236157594 C350.785600067788 115.11774806163366 354.9062281642987 104.91759036415068 354.9062281642987 104.91759036415068 C354.9062281642987 104.91759036415068 364.96762948474816 99.71442474907697 365.79915699101525 93.31031879637159 C366.63068449727496 86.90621284369696 365.3353882344758 82.95418662314516 362.03785207999476 78.99303040474784 C358.74031592551376 75.03187418635052 351.7156562960146 71.60549720075831 345.69090728977267 75.65405076439266 C339.66615828350905 79.7026043280088 336.43442187342305 82.92495188820892 334.1606566428046 102.62426714548276 C331.88689141220686 122.32358240276481 338.0462689700771 132.69954719216668 327.8310046449343 146.79396588875903 C317.6157403197825 160.88838458536208 302.12511218026145 154.8827658760187 302.12511218026145 154.8827658760187 C302.12511218026145 154.8827658760187 298.90236767317083 136.68412638060016 298.90236767317083 136.68412638060016 Z" style="stroke: rgb(0, 0, 0); stroke-width: 0; stroke-linecap: butt; stroke-linejoin: miter; fill: rgb(0, 0, 0);"></path></g><g><defs></defs> <path d="M442.7863570582799 137.48537512123545 C460.04332794479 136.69370297180546 465.71100688203 128.82152416768548 467.79470322981 112.06183529695748 C469.87839957757 95.30214642623348 470.81393886349997 75.13265027409547 470.81393886349997 75.13265027409547 C470.81393886349997 75.13265027409547 449.17045000915004 74.28537828915849 449.17045000915004 74.28537828915849 C449.17045000915004 74.28537828915849 451.61283217764003 57.79235605667749 451.61283217764003 57.79235605667749 C451.61283217764003 57.79235605667749 472.74166509306997 58.02257338128548 472.74166509306997 58.02257338128548 C472.74166509306997 58.02257338128548 473.9468813317899 34.18790125451049 473.9468813317899 34.18790125451049 C473.9468813317899 34.18790125451049 483.7591262527501 28.826009651216495 488.55839849969993 29.104300336419485 C493.35767074664 29.38259102162347 494.04328106765 32.16549787366547 494.04328106765 32.16549787366547 C494.04328106765 32.16549787366547 492.31268967246 58.77018451145649 492.31268967246 58.77018451145649 C492.31268967246 58.77018451145649 516.3403163862799 59.259098738846475 516.3403163862799 59.259098738846475 C516.3403163862799 59.259098738846475 513.88851774201 76.37109669749348 513.88851774201 76.37109669749348 C513.88851774201 76.37109669749348 492.0532600894901 75.61494591799648 492.0532600894901 75.61494591799648 C492.0532600894901 75.61494591799648 489.79192924731 82.87245355927048 489.10092074934005 97.45287716750748 C488.4099122513801 112.03330077573948 488.7635137658199 135.92250623438548 488.7635137658199 135.92250623438548 C488.7635137658199 135.92250623438548 492.87717569176993 143.56171381959547 503.67553824742004 144.83491508379547 C514.4739008030799 146.10811634800547 523.21543239574 145.6837159266055 523.21543239574 145.6837159266055 C523.21543239574 145.6837159266055 535.39739702571 157.46609390093545 535.39739702571 157.46609390093545 C535.39739702571 157.46609390093545 525.27226335872 161.3865315184255 505.2181614696399 160.96213109703547 C485.1640595806 160.53773067564543 480.53618991389 152.89852309041544 480.53618991389 152.89852309041544 C480.53618991389 152.89852309041544 463.22448746246005 159.72463009408546 444.87905504524997 160.26413953483546 C426.53362262805 160.80364897559548 418.53212590294993 151.94255451878547 418.53212590294993 151.94255451878547 C418.53212590294993 151.94255451878547 431.85245894639 137.01735508398548 431.85245894639 137.01735508398548 C431.85245894639 137.01735508398548 425.52938617177006 138.2770472706655 442.7863570582799 137.48537512123545 Z" style="stroke: rgb(102, 102, 102); stroke-width: 0; stroke-linecap: butt; stroke-linejoin: miter; fill: rgb(0, 0, 0);"></path></g><g><defs></defs> <path d="M248.94439698706995 136.24339929919046 C257.15890195145994 132.32982880541044 262.09725060192 119.77423910574048 262.09725060192 119.77423910574048 C262.09725060192 119.77423910574048 266.2688632571799 111.75936423306048 268.77183085032993 98.27120351102049 C271.27479844351 84.78304278898348 270.56048379806 75.56686087395947 270.56048379806 75.56686087395947 C270.56048379806 75.56686087395947 283.14317271097 74.99934103308748 283.14317271097 74.99934103308748 C283.14317271097 74.99934103308748 283.14317271097 71.13285866490047 283.14317271097 71.13285866490047 C283.14317271097 71.13285866490047 270.85733558750985 71.50865694766948 270.85733558750985 71.50865694766948 C270.85733558750985 71.50865694766948 269.97977579296 53.69532698959647 269.97977579296 53.69532698959647 C269.97977579296 53.69532698959647 270.49634158912 59.23806827850147 271.96238723046986 60.99369858503549 C273.42843287183996 62.74932889157047 275.84395835840996 61.326534331260476 275.84395835840996 61.326534331260476 C275.84395835840996 61.326534331260476 276.1226943547099 52.173611700776476 281.3880531218899 52.173611700776476 C286.65341188907996 52.173611700776476 287.53097168361 44.26069219890748 287.53097168361 44.26069219890748 C287.53097168361 44.26069219890748 291.13554888769 59.395982692476466 293.67389024533986 59.782188144878475 C296.21223160299996 60.16839359728148 290.97122511825 73.41380095946649 290.97122511825 73.41380095946649 C290.97122511825 73.41380095946649 286.37168913297 103.08504906018048 285.3129109480499 117.15462852188047 C284.25413276310996 131.22420798359047 282.89197334566984 134.40324918493047 304.57838599836987 136.24344805380048 C326.2647986510699 138.08364692269043 325.83957487357 134.92902029032047 325.83957487357 134.92902029032047 C325.83957487357 134.92902029032047 329.66658887108997 140.81881062347048 329.66658887108997 140.81881062347048 C329.66658887108997 140.81881062347048 325.83957487357 157.43704417591044 300.75137200083986 155.85973085975047 C275.66316912812 154.28241754357043 273.5370502405899 144.65578574008043 273.5370502405899 144.65578574008043 C273.5370502405899 144.65578574008043 265.0325489828299 156.92209394512048 244.62183337031993 156.55402967764047 C224.21111775783996 156.18596541014045 219.95885427510987 149.43949126266045 219.95885427510987 149.43949126266045 C219.95885427510987 149.43949126266045 227.4043587818799 131.15431530781046 227.4043587818799 131.15431530781046 C227.4043587818799 131.15431530781046 240.72989202266993 140.15696979299048 248.94439698706995 136.24339929919046 Z" style="stroke: rgb(0, 0, 0); stroke-width: 0; stroke-linecap: butt; stroke-linejoin: miter; fill: rgb(0, 0, 0);"></path></g><g><defs></defs> <path d="M388.83449412032996 138.45525065976045 C397.04899908472 134.54168016597043 401.03702231503996 122.45809328398043 401.03702231503996 122.45809328398043 C401.03702231503996 122.45809328398043 405.20863497029995 114.44321841130046 407.71160256345 100.95505768925047 C410.21457015663 87.46689696722343 409.50025551117994 78.25071505220045 409.50025551117994 78.25071505220045 C409.50025551117994 78.25071505220045 422.08294442408 77.68319521132743 422.08294442408 77.68319521132743 C422.08294442408 77.68319521132743 422.08294442408 73.81671284314247 422.08294442408 73.81671284314247 C422.08294442408 73.81671284314247 409.79710730062993 74.19251112591145 409.79710730062993 74.19251112591145 C409.79710730062993 74.19251112591145 408.91954750608 56.37918116784046 408.91954750608 56.37918116784046 C408.91954750608 56.37918116784046 409.43611330222996 61.921922456743445 410.90215894358994 63.677552763278456 C412.3682045849499 65.43318306981344 414.78373007152993 64.01038850950245 414.78373007152993 64.01038850950245 C414.78373007152993 64.01038850950245 415.06246606783 54.85746587902044 420.327824835 54.85746587902044 C425.59318360219993 54.85746587902044 426.47074339674 46.94454637715246 426.47074339674 46.94454637715246 C426.47074339674 46.94454637715246 430.07532060080996 62.079836870720456 432.61366195845994 62.46604232312144 C435.1520033161099 62.85224777552345 429.91099683136997 76.09765513770846 429.91099683136997 76.09765513770846 C429.91099683136997 76.09765513770846 425.31146084609 105.76890323842044 424.25268266117996 119.83848270012045 C423.19390447622993 133.90806216182045 421.8317450587999 137.08710336316045 443.51815771148995 138.92730223204046 C465.20457036419 140.76750110092047 464.77934658668994 137.61287446855044 464.77934658668994 137.61287446855044 C464.77934658668994 137.61287446855044 468.60636058421994 143.50266480171047 468.60636058421994 143.50266480171047 C468.60636058421994 143.50266480171047 464.77934658668994 160.12089835413042 439.69114371395995 158.54358503797044 C414.60294084122995 156.96627172179046 412.4768219537 147.33963991832047 412.4768219537 147.33963991832047 C412.4768219537 147.33963991832047 403.97232069593997 159.60594812336046 383.56160508345 159.23788385588045 C363.15088947096 158.86981958838044 358.8986259882199 152.12334544090044 358.8986259882199 152.12334544090044 C358.8986259882199 152.12334544090044 364.0013113182599 140.24172999553042 364.0013113182599 140.24172999553042 C364.0013113182599 140.24172999553042 380.61998915592994 142.36882115354047 388.83449412032996 138.45525065976045 Z" style="stroke: rgb(0, 0, 0); stroke-width: 0; stroke-linecap: butt; stroke-linejoin: miter; fill: rgb(0, 0, 0);"></path></g><g><defs></defs> <path d="M689.8790219255941 125.27724779982044 C689.8790219255941 125.27724779982044 661.0735941712841 125.18159250871743 661.0735941712841 125.18159250871743 C661.0735941712841 125.18159250871743 660.0927102235642 140.40052053174043 666.9575541526341 152.28941652537043 C673.8223980817141 164.17831251900043 692.1970025760941 171.4945466578004 709.4880913195741 171.49454349556044 C726.7791800630541 171.4945403333304 740.5090212260341 164.93608442149042 747.3736541321821 157.69822076830042 C754.2382870383351 150.46035711508046 759.1106024685531 136.66721283999044 758.1454683414051 128.01677999014345 C757.1803342142581 119.36634714029346 751.879278194699 107.47077228459143 735.4064995609741 98.78608443018642 C718.9337209272641 90.10139657578144 693.9408687826341 81.88291042998644 691.1300287822041 74.11797168742744 C688.3191887817741 66.35303294486845 690.8507196657341 57.23138642319243 711.4495422231041 59.00737677418344 C732.0483647804841 60.78336712517343 727.2026160058541 80.97241072538243 727.2026160058541 80.97241072538243 C727.2026160058541 80.97241072538243 756.5654245798361 80.97242502482943 756.5654245798361 80.97242502482943 C756.5654245798361 80.97242502482943 760.1225173398091 63.52696606740243 747.373646244142 48.89449078514646 C734.6247751484841 34.26201550288995 723.4758240539941 33.40058117522581 706.1848980825241 32.48604164327925 C688.8939721110341 31.571502111332634 666.957688523134 42.54586523759873 662.0542093780141 59.00739326556344 C657.1507302328941 75.46892129352644 663.0346712799042 95.58856814205443 679.7062719434641 102.90480578318245 C696.3778726070241 110.22104342431045 722.2581287105141 113.41735714718642 724.8179013986941 126.19176320551442 C727.3776740868641 138.9661692638404 715.9916737513441 145.88770858938045 704.2234661133241 144.05866567048042 C692.4552584753042 142.22962275158045 689.8790219255941 125.27724779982044 689.8790219255941 125.27724779982044 Z" style="stroke: rgb(0, 0, 0); stroke-width: 0; stroke-linecap: butt; stroke-linejoin: miter; fill: rgb(0, 0, 0);"></path></g><g><defs></defs> <path d="M101.69045767549025 91.75287220840256 C156.62341844714965 40.55245027845372 157.80130924232307 32.232630395705385 157.80130924232307 32.232630395705385 C157.80130924232307 32.232630395705385 118.03625015878853 25.142483737316994 111.16349589227568 40.7790937373842 C104.29074162578442 56.415703737457264 141.06651518112417 87.87010554999766 141.06651518112417 87.87010554999766 C141.06651518112417 87.87010554999766 190.88950221409394 143.16869807445028 127.32746180881023 156.02812283723415 C63.76542140352845 168.8875476000278 21.507485803551475 128.5675669472099 23.108651865500548 124.40821142364506 C24.709817927441776 120.24885590009195 33.89227611685388 119.74808760547357 33.89227611685388 119.74808760547357 C33.89227611685388 119.74808760547357 46.32779446865467 118.09688944065759 59.47223736599895 117.69995107895373 C72.616680263353 117.30301271724785 101.10343628548006 126.699321565674 101.10343628548006 126.699321565674 C101.10343628548006 126.699321565674 74.4179240965615 122.24458854709344 64.28892453809331 122.76889008572711 C54.15992497961335 123.29319162435296 50.29298059300672 127.09770891743581 50.29298059300672 127.09770891743581 C50.29298059300672 127.09770891743581 86.1912908066428 146.32656344835277 118.5353740432677 132.59315033200272 C150.87945727991226 118.85973721564874 85.6059927797198 59.59842366351812 86.73586740650083 45.54126650189353 C87.86574203328186 31.484109340268887 95.04462426337759 24.139289937569956 107.87713604309673 17.06149770444658 C120.70964782280217 9.98370547130554 192.4373630459938 15.080122347785888 192.4373630459938 15.080122347785888 C192.4373630459938 15.080122347785888 168.018632077805 12.85452323845145 160.61960111347904 31.125114614318036 C153.22057014915103 49.39570599017476 25.10075052983578 162.94529947136402 25.10075052983578 162.94529947136402 C25.10075052983578 162.94529947136402 46.75749690382301 142.95329413836322 101.69045767549025 91.75287220840256 Z" style="stroke: rgb(102, 102, 102); stroke-width: 0; stroke-linecap: butt; stroke-linejoin: miter; fill: rgb(0, 0, 0);"></path></g></svg>