<svg height="155.99999999999818" overflow="visible" viewBox="0 0 217.35785669559004  155.99999999999818" width="217.35785669559004" xmlns="http://www.w3.org/2000/svg"><g><defs></defs> <path d="M108.11010383352016 131.95511067131883 C108.11010383352016 131.95511067131883 108.11011104170018 156.00005125511962 108.11011104170018 156.00005125511962 C108.11011104170018 156.00005125511962 139.79615660384013 134.42289069101935 160.67927892395016 114.70730829991953 C181.56240124406008 94.99172590881972 184.79189889559018 89.59265447211874 184.79189889559018 89.59265447211874 C184.79189889559018 89.59265447211874 199.42251487428007 89.59265447211874 199.42251487428007 89.59265447211874 C199.42251487428007 89.59265447211874 209.2822778163801 84.99103432591983 213.73507398388017 80.03735170411892 C218.1878701512801 75.08366908241987 217.23369954398004 68.9290937038204 217.23369954398004 68.9290937038204 C217.23369954398004 68.9290937038204 191.32970915908015 69.01272093781881 191.32970915908015 69.01272093781881 C191.32970915908015 69.01272093781881 192.10720688488016 64.17690534171925 192.10720688488016 64.17690534171925 C192.10720688488016 64.17690534171925 199.42250261818015 63.82529948752017 199.42250261818015 63.82529948752017 C199.42250261818015 63.82529948752017 210.47499107558008 60.297677014419605 214.3711877220801 55.11882700081878 C218.26738436858022 49.939976987119735 217.23369954398004 43.41012262211916 217.23369954398004 43.41012262211916 C217.23369954398004 43.41012262211916 193.06137749228014 43.10989943302047 193.06137749228014 43.10989943302047 C193.06137749228014 43.10989943302047 195.28777557598016 31.100971865020256 185.74606950289012 17.891151540519786 C176.2043634298401 4.6813312158192275 166.9807142258901 0.478206567118832 146.08022625119008 0.10750690161876264 C125.17973827648018 -0.26319276388130675 105.79363683173017 13.351294484818936 105.79363683173017 13.351294484818936 C105.79363683173017 13.351294484818936 105.79363683173017 38.20033667561984 105.79363683173017 38.20033667561984 C105.79363683173017 38.20033667561984 121.75023705860008 19.53144910911942 139.7167792639001 20.354197044620378 C157.68332146908017 21.17694498001947 169.86065282018012 32.107934506519086 169.50609474603016 53.092904220118726 C169.15153667186007 74.07787393372018 154.16863727457007 91.60195470741928 141.94562107808008 103.73489623741989 C129.72260488152017 115.86783776741868 108.11010383352016 131.95511067131883 108.11010383352016 131.95511067131883 Z" style="stroke: rgb(0, 0, 0); stroke-width: 0; stroke-linecap: butt; stroke-linejoin: miter; fill: rgb(255, 248, 247);"></path></g><g><defs></defs> <path d="M108.60682001507507 131.29218959699756 C108.60682001507507 131.29218959699756 108.60679846290509 155.87756823089694 108.60679846290509 155.87756823089694 C108.60679846290509 155.87756823089694 73.71306998015348 129.17436649699812 57.580623920942685 113.03937685369783 C41.448177861732006 96.90438721039754 35.17870865466159 89.42383421639897 35.17870865466159 89.42383421639897 C35.17870865466159 89.42383421639897 16.244981729740857 89.51903658689844 16.244981729740857 89.51903658689844 C16.244981729740857 89.51903658689844 8.55999756079052 87.01747841839824 3.9489984747602875 81.83862840469737 C-0.6620006112599413 76.65977839109837 0.7132096424701331 68.92903126929923 0.7132096424701331 68.92903126929923 C0.7132096424701331 68.92903126929923 26.260835923461286 68.90590453659752 26.260835923461286 68.90590453659752 C26.260835923461286 68.90590453659752 25.851839640941307 64.25182208239858 25.851839640941307 64.25182208239858 C25.851839640941307 64.25182208239858 16.24499603750087 63.2247906745979 16.24499603750087 63.2247906745979 C16.24499603750087 63.2247906745979 7.346576748680377 60.07244718799848 3.301840708300233 55.11876456629943 C-0.7428953320699065 50.16508194459857 0.06604056456001217 42.50939061999998 0.06604056456001217 42.50939061999998 C0.06604056456001217 42.50939061999998 24.672139908031227 42.77461301489893 24.672139908031227 42.77461301489893 C24.672139908031227 42.77461301489893 26.612060050901277 28.798497597199457 37.27762344744178 17.8997289869003 C47.9431868440023 7.000960376699368 54.4273042586326 1.3788137001993164 74.03946869724348 0.08142863670036604 C93.65163313584435 -1.2159564267003589 107.11266936819493 13.431965223600855 107.11266936819493 13.431965223600855 C107.11266936819493 13.431965223600855 107.11265506044492 38.200345462999394 107.11265506044492 38.200345462999394 C107.11265506044492 38.200345462999394 93.60199150792437 20.169112318699263 77.62391245352364 20.705375860399727 C61.645833399132925 21.241639402000146 50.5969618473124 31.202374954198604 49.087946904312275 52.0908122473993 C47.57893196132227 72.97924954069822 64.34369945146307 92.58939368079882 75.27183782436362 103.57792298539789 C86.19997619726405 114.566452290097 108.60682001507507 131.29218959699756 108.60682001507507 131.29218959699756 Z" style="stroke: rgb(0, 0, 0); stroke-width: 0; stroke-linecap: butt; stroke-linejoin: miter; fill: rgb(255, 248, 247);"></path></g></svg>