<svg height="320" overflow="visible" viewBox="0 0 3729.999904297972  510.3333435058594" width="3729.999904297972" xmlns="http://www.w3.org/2000/svg"><g><defs></defs> <path d="M2039.999900817932 43.094823025211554 C2039.999900817932 43.094823025211554 2135.6824604503117 163.0021546097114 2135.6824604503117 163.0021546097114 C2135.6824604503117 163.0021546097114 2115.333234151262 194.966117278801 2115.333234151262 194.966117278801 C2115.333234151262 194.966117278801 2105.333234151262 204.59497457395082 2168.6665674846017 203.67772106196117 C2231.999900817932 202.7604675499815 2273.999900817932 167.5355427329714 2377.999900817932 181.08885960635143 C2481.999900817932 194.64217647972146 3729.999900817952 199.4090298311512 3729.999900817952 199.4090298311512 C3729.999900817952 199.4090298311512 3723.999900817952 63.408967706771364 3723.999900817952 63.408967706771364 C3723.999900817952 63.408967706771364 2462.6665674846017 63.99977094187125 2462.6665674846017 63.99977094187125 C2462.6665674846017 63.99977094187125 2424.939342164182 37.3515905289014 2424.939342164182 37.3515905289014 C2424.939342164182 37.3515905289014 2039.999900817932 43.094823025211554 2039.999900817932 43.094823025211554 Z" style="stroke: rgb(37, 178, 217); stroke-width: 0; stroke-linecap: butt; stroke-linejoin: miter; fill: rgb(191, 24, 2);"></path></g><g><defs></defs> <path d="M1607.2999646244489 21.33324603256642 C1607.2999646244489 21.33324603256642 1537.9999157963239 238.33324603257097 1537.9999157963239 238.33324603257097 C1537.9999157963239 238.33324603257097 1611.9999157963289 195.33324603257097 1723.9999157963289 178.33324603257097 C1835.9999157963289 161.33324603257097 1925.9999157963189 183.9472130466811 2021.9999157963189 201.65472306637093 C2117.999915796319 219.36223308606168 2289.999915796319 199.29372173041156 2289.999915796319 199.29372173041156 C2289.999915796319 199.29372173041156 2207.333249129659 196.93272039445128 2175.333249129659 162.6982010230613 C2143.333249129659 128.46368165167132 2042.1300252648389 21.33324597344199 2042.1300252648389 21.33324597344199 C2042.1300252648389 21.33324597344199 1607.2999646244489 21.33324603256642 1607.2999646244489 21.33324603256642 Z" style="stroke: rgb(37, 178, 217); stroke-width: 0; stroke-linecap: butt; stroke-linejoin: miter; fill: rgb(214, 0, 0);"></path></g><g><defs></defs> <path d="M1177.3332378989805 31.999996987900886 C1177.3332378989805 31.999996987900886 -0.000014054107850824948 23.40986956840061 -0.000014054107850824948 23.40986956840061 C-0.000014054107850824948 23.40986956840061 159.9999859458933 167.40966495664998 159.9999859458933 167.40966495664998 C159.9999859458933 167.40966495664998 360.2500088340354 173.6787486155099 635.9999859458471 259.40966495665 C911.7499630576688 345.14058129780005 1122.9998943931212 510.3333303212303 1122.9998943931212 510.3333303212303 C1122.9998943931212 510.3333303212303 1405.999894393122 443.3333303212303 1405.999894393122 443.3333303212303 C1405.999894393122 443.3333303212303 1385.3332657395817 344.6663381337303 1464.6665800663523 280.99983422747937 C1543.9998943931228 217.33333032122937 1799.9998943931246 168.33333032122937 1799.9998943931246 168.33333032122937 C1799.9998943931246 168.33333032122937 1651.9998943931237 154.33333032122937 1634.9998943931237 103.33333032122937 C1617.9998943931234 52.33333032122937 1615.9999045656534 -0.000003012099114130251 1615.9999045656534 -0.000003012099114130251 C1615.9999045656534 -0.000003012099114130251 1218.6665712323108 14.666663654567856 1218.6665712323108 14.666663654567856 C1218.6665712323108 14.666663654567856 1177.3332378989805 31.999996987900886 1177.3332378989805 31.999996987900886 Z" style="stroke: rgb(37, 178, 217); stroke-width: 0; stroke-linecap: butt; stroke-linejoin: miter; fill: rgb(255, 47, 28);"></path></g></svg>