<svg height="517.6781616210938" overflow="visible" viewBox="0 0 583.3125610351562  517.6781616210938" width="440" xmlns="http://www.w3.org/2000/svg"><g><defs></defs> <path d="M344 0.3761530662070527 C344 0.3761530662070527 395.25 -0.9493633970920428 438 1.3761447205837385 C480.75 3.7016528382595197 515 9.678185536910178 515 9.678185536910178 C515 9.678185536910178 536.8792037963867 11.47796777219196 545 19.678185536910178 C553.1207962036133 27.878403301628396 547 55.67818553691018 547 55.67818553691018 C547 55.67818553691018 513.75 83.17818345050432 488 110.67818553691018 C462.25 138.17818762331603 429.1440124511719 167.67818379304856 429.1440124511719 167.67818379304856 C429.1440124511719 167.67818379304856 580 197.67819388253338 580 197.67819388253338 C580 197.67819388253338 584.5203704833984 203.35880214146164 583.0000076293945 213.35880039760013 C581.4796447753906 223.35879865373863 573.4435424804688 225.11599905831463 573.4435424804688 225.11599905831463 C573.4435424804688 225.11599905831463 426.1440124511719 195.67818379304856 426.1440124511719 195.67818379304856 C426.1440124511719 195.67818379304856 459.0000000000001 325.6781855369102 459.0000000000001 325.6781855369102 C459.0000000000001 325.6781855369102 417.9560546875001 353.2432485775072 376.2060546875 381.2432490134727 C334.4560546875 409.24324944943817 287 437.6781872807719 287 437.6781872807719 C287 437.6781872807719 290 391.6781723333868 290 391.6781723333868 C290 391.6781723333868 328.5 371.17818223602933 360 350.6781855369102 C391.5 330.178188837791 421 309.6781855369102 421 309.6781855369102 C421 309.6781855369102 386 170.67818553691018 386 170.67818553691018 C386 170.67818553691018 433.21671295166016 120.36879113644977 462.0027160644531 89.94429881816018 C490.7887191772461 59.51980649987058 513 43.98022635323662 513 43.98022635323662 C513 43.98022635323662 480.25 35.25369365458596 438 32.67818553691018 C395.75 30.102677419234396 344 33.67819388253349 344 33.67819388253349 C344 33.67819388253349 306.0195617675781 47.39663036112893 267.0195617675781 66.39663036112893 C228.01956176757812 85.39663036112893 188 109.6781938825336 188 109.6781938825336 C188 109.6781938825336 276 236.67818553691018 276 236.67818553691018 C276 236.67818553691018 290 391.6781789351485 290 391.6781789351485 C290 391.6781789351485 291 517.6781789351485 291 517.6781789351485 C291 517.6781789351485 257 517.6781723333868 257 517.6781723333868 C257 517.6781723333868 256 393.6781938825336 256 393.6781938825336 C256 393.6781938825336 241 242.67818553691018 241 242.67818553691018 C241 242.67818553691018 159.02670288085938 129.05106250996494 159.02670288085938 129.05106250996494 C159.02670288085938 129.05106250996494 131.25667572021484 144.02140478017384 102 154.67818553691018 C72.74332427978516 165.33496629364652 42 171.6781855369103 42 171.6781855369103 C42 171.6781855369103 54.81485557556152 203.62050731425404 67.31485557556152 229.12050731425404 C79.81485557556152 254.62050731425404 100 287.6781855369102 100 287.6781855369102 C100 287.6781855369102 145 318.6781855369102 183.42951202392578 344.43707275390625 C221.85902404785156 370.1959599709023 256.0000000000002 393.67819562639534 256.0000000000002 393.67819562639534 C256.0000000000002 393.67819562639534 257.99998474121094 437.6781938825336 257.99998474121094 437.6781938825336 C257.99998474121094 437.6781938825336 215.49999618530273 404.17818762331603 167 372.6781855369102 C118.5000038146975 341.1781834505043 74 311.6781855369102 74 311.6781855369102 C74 311.6781855369102 54.5 277.6781855369103 38 241.6781855369103 C21.5 205.6781855369103 0 153.6781855369103 0 153.6781855369103 C0 153.6781855369103 43.80443572998047 140.08803661112893 82.80443572998047 123.58803661112893 C121.80443572998047 107.08803661112893 156 87.67818553691018 156 87.67818553691018 C156 87.67818553691018 198 63.50369365458596 245 41.67818553691018 C292 19.852677419234396 344 0.3761530662070527 344 0.3761530662070527 Z" style="stroke: rgb(102, 102, 102); stroke-width: 0; stroke-linecap: butt; stroke-linejoin: miter; fill: rgb(255, 47, 0);"></path></g></svg>