<svg height="552.0708618164062" overflow="visible" viewBox="0 0 556 552.0708618164062" width="420" xmlns="http://www.w3.org/2000/svg"><g><defs></defs> <path d="M309.1440200805664 9.070841388313056 C388.1440200805664 -2.929158611686944 503.1440200805664 -10.929158611687 513.1440200805664 38.372882204639495 C523.1440200805664 87.67492302096593 363.14402008056646 172.07084138831306 363.14402008056646 172.07084138831306 C363.14402008056646 172.07084138831306 398.14402008056646 175.07084138831306 444.1440200805664 181.07084138831306 C490.1440200805664 187.07084138831306 563.1440200805664 202.07084138831306 556.1440200805664 220.07084138831306 C549.1440200805664 238.07084138831306 490.1440200805664 216.07084138831306 444.14402008056646 207.07084138831306 C398.1440200805665 198.07084138831306 363.14402008056646 198.07084138831306 363.14402008056646 198.07084138831306 C363.14402008056646 198.07084138831306 438.1440200805665 306.07084138831306 399.1440200805665 381.54839240872127 C360.1440200805665 457.0259434291295 174.14402008056675 522.070841388313 174.14402008056675 522.070841388313 C174.14402008056675 522.070841388313 174.14402008056666 549.2437945930324 174.14402008056666 549.2437945930324 C174.14402008056666 549.2437945930324 161.14402008056678 550.070841388313 161.14402008056678 550.070841388313 C161.14402008056678 550.070841388313 161.14402008056686 498.07084138831306 161.14402008056686 498.07084138831306 C161.14402008056686 498.07084138831306 326.1440200805666 433.6055352658641 371.1440200805665 368.8381883270886 C416.14402008056646 304.07084138831306 311.14402008056646 193.07084138831306 330.14402008056646 169.07084138831306 C349.14402008056646 145.07084138831306 486.1440200805664 77.02390261280289 476.1440200805664 47.070841388313056 C466.1440200805664 17.117780163823227 390.64402008056635 24.872882204639495 309.1440200805664 38.372882204639495 C227.64402008056646 51.872882204639495 150.14402008056666 101.07084138831306 150.14402008056666 101.07084138831306 C150.14402008056666 101.07084138831306 213.14402008056646 181.1478822046396 219.14402008056646 279.07084138831306 C225.14402008056646 376.9938005719865 180.14402008056663 492.76267812300694 180.14402008056663 492.76267812300694 C180.14402008056663 492.76267812300694 170.14402008056692 499.4938005719865 161.14402008056697 498.07084138831306 C152.14402008056703 496.6478822046396 144.14402008056686 487.07084138831306 144.14402008056686 487.07084138831306 C144.14402008056686 487.07084138831306 199.14402008056646 382.07084138831306 193.14402008056646 290.07084138831306 C187.14402008056646 198.07084138831306 129.14402008056643 116.07084138831306 129.14402008056643 116.07084138831306 C129.14402008056643 116.07084138831306 35.14402008056646 179.07084138831306 28.144020080566463 236.44022914341508 C21.144020080566463 293.8096168985171 30.894020080566463 323.99022914341515 62.14402008056649 388.07084138831306 C93.39402008056652 452.15145363321096 161.14402008056697 498.07084138831306 161.14402008056697 498.07084138831306 C161.14402008056697 498.07084138831306 161.14402008056666 550.070841388313 161.14402008056666 550.070841388313 C161.14402008056666 550.070841388313 144.1440200805669 552.070841388313 144.1440200805669 552.070841388313 C144.1440200805669 552.070841388313 144.14402008056697 522.070841388313 144.14402008056697 522.070841388313 C144.14402008056697 522.070841388313 75.64402008056658 479.8663785973372 41.14402008056652 405.909616898517 C6.644020080566463 331.95285519969684 -9.85597991943348 292.907576082191 6.144020080566463 227.07084138831317 C22.144020080566406 161.23410669443535 48.14402008056646 133.07084138831306 120.14402008056643 85.07084138831306 C192.1440200805664 37.070841388313056 230.1440200805664 21.070841388313056 309.1440200805664 9.070841388313056 Z" style="stroke: rgb(102, 102, 102); stroke-width: 0; stroke-linecap: butt; stroke-linejoin: miter; fill: rgb(255, 47, 0);"></path></g></svg>