<svg height="206.99984807627925" overflow="visible" viewBox="0 0 3717.6665053131787  206.99984807627925" width="3717.6665053131787" xmlns="http://www.w3.org/2000/svg"><g><defs></defs> <path d="M1220.6666259765625 41.05388427079993 C1220.6666259765625 41.05388427079993 1522.6666259765625 -0.4785519172999102 1663.6666259765625 0.004154542400101491 C1804.6666259765625 0.48686100200006877 1883.6666259765625 53.10186510299991 1999.6666259765625 54.54998448190008 C2115.6666259765625 55.99810386080003 2252.6666259765625 18.34700000869998 2422.6666259765625 19.79511938769997 C2592.6666259765625 21.243238766599916 2695.6666259765625 31.882461537599966 2695.6666259765625 31.882461537599966 C2695.6666259765625 31.882461537599966 2825.333292643262 42.666677239499904 3126.6666259765625 58.666677239499904 C3427.9999593098623 74.6666772394999 3716.333292643229 65.33332462568251 3716.333292643229 65.33332462568251 C3716.333292643229 65.33332462568251 3716.333292643229 83.04911489338247 3716.333292643229 83.04911489338247 C3716.333292643229 83.04911489338247 -0.00004069010424245789 83.04932697908362 -0.00004069010424245789 83.04932697908362 C-0.00004069010424245789 83.04932697908362 -0.00004069010424245789 70.66665795908352 -0.00004069010424245789 70.66665795908352 C-0.00004069010424245789 70.66665795908352 691.9999593098923 80.00001057290001 923.9999593098926 66.6666772394999 C1155.9999593098955 53.33334390620007 1220.6666259765625 41.05388427079993 1220.6666259765625 41.05388427079993 Z" style="stroke: rgb(102, 102, 102); stroke-width: 0; stroke-linecap: butt; stroke-linejoin: miter; fill: rgb(255, 47, 0);"></path></g><g><defs></defs> <path d="M1114.6666259765789 59.05385441740009 C1114.6666259765789 59.05385441740009 1401.5154395359018 17.521418229300025 1535.441541230811 18.004124689000037 C1669.3676429257303 18.486831148600004 1744.4042530952197 71.10183524960007 1854.584592078269 72.54995462850025 C1964.7649310613183 73.99807400740019 2094.8917107223374 36.346970155299914 2256.3628971630465 37.795089534299905 C2417.8340836036455 39.24320891319985 2515.6666259765448 49.88243168420013 2515.6666259765448 49.88243168420013 C2515.6666259765448 49.88243168420013 2606.6666259765443 60.000062099700244 2811.999959309943 72.00006209970024 C3017.333292643242 84.00006209970047 3717.666625976638 80.66676101270014 3717.666625976638 80.66676101270014 C3717.666625976638 80.66676101270014 3717.666625976538 206.99983092480034 3717.666625976538 206.99983092480034 C3717.666625976538 206.99983092480034 -0.00004069008787155326 186.55001519929237 -0.00004069008787155326 186.55001519929237 C-0.00004069008787155326 186.55001519929237 -0.00004069008787155326 79.93433547959216 -0.00004069008787155326 79.93433547959216 C-0.00004069008787155326 79.93433547959216 695.999959309916 82.66672876640018 813.3332926432454 78.66672876640018 C930.6666259765847 74.66672876640018 1114.6666259765789 59.05385441740009 1114.6666259765789 59.05385441740009 Z" style="stroke: rgb(102, 102, 102); stroke-width: 0; stroke-linecap: butt; stroke-linejoin: miter; fill: rgb(48, 48, 47);"></path></g></svg>